<?xml version='1.0' encoding='utf-8'?>
<svg xmlns:xlink="http://www.w3.org/1999/xlink" xmlns="http://www.w3.org/2000/svg" width="311.727mm" height="174.266mm" version="1.1" style="shape-rendering:geometricPrecision; text-rendering:geometricPrecision; image-rendering:optimizeQuality; fill-rule:evenodd; clip-rule:evenodd" viewBox="0 0 31218 17452"> <defs> <style type="text/css">  .fil22 {fill:#009846} .fil25 {fill:#06803B} .fil26 {fill:#09803D} .fil24 {fill:#0E8544} .fil23 {fill:#217549} .fil11 {fill:#2B2A29} .fil10 {fill:#898989} .fil2 {fill:#CDA607} .fil9 {fill:#DFB408} .fil3 {fill:#FECC00} .fil28 {fill:url(#id0)} .fil30 {fill:url(#id1)} .fil21 {fill:url(#id2)} .fil19 {fill:url(#id3)} .fil18 {fill:url(#id4)} .fil13 {fill:url(#id5)} .fil16 {fill:url(#id6)} .fil15 {fill:url(#id7)} .fil12 {fill:url(#id8)} .fil7 {fill:url(#id9)} .fil1 {fill:url(#id10)} .fil4 {fill:url(#id11)} .fil5 {fill:url(#id12)} .fil6 {fill:url(#id13)} .fil32 {fill:url(#id14)} .fil0 {fill:url(#id15)} .fil34 {fill:url(#id16)} .fil36 {fill:url(#id17)} .fil33 {fill:url(#id18)} .fil35 {fill:url(#id19)} .fil27 {fill:url(#id20)} .fil29 {fill:url(#id21)} .fil31 {fill:url(#id22)} .fil20 {fill:url(#id23)} .fil17 {fill:url(#id24)} .fil14 {fill:url(#id25)} .fil8 {fill:url(#id26)}  </style> <linearGradient id="id0" gradientUnits="userSpaceOnUse" x1="6417.98" y1="13665.1" x2="998.586" y2="9849.77"> <stop offset="0" style="stop-color:#AF9778"/> <stop offset="0.529412" style="stop-color:#874C20"/> <stop offset="1" style="stop-color:#6E411D"/> </linearGradient> <linearGradient id="id1" gradientUnits="userSpaceOnUse" xlink:href="#id0" x1="22426.9" y1="13665.1" x2="17007.5" y2="9849.77"> </linearGradient> <linearGradient id="id2" gradientUnits="userSpaceOnUse" x1="24724.5" y1="6457.79" x2="27929.1" y2="6457.79"> <stop offset="0" style="stop-color:#E73A3F"/> <stop offset="0.521569" style="stop-color:#B32322"/> <stop offset="1" style="stop-color:#8E241F"/> </linearGradient> <linearGradient id="id3" gradientUnits="userSpaceOnUse" xlink:href="#id2" x1="24724.5" y1="5988.61" x2="27929.1" y2="5988.61"> </linearGradient> <linearGradient id="id4" gradientUnits="userSpaceOnUse" xlink:href="#id2" x1="17486.1" y1="7118.24" x2="20690.7" y2="7118.24"> </linearGradient> <linearGradient id="id5" gradientUnits="userSpaceOnUse" xlink:href="#id2" x1="10246.7" y1="7399.64" x2="13451.3" y2="7399.64"> </linearGradient> <linearGradient id="id6" gradientUnits="userSpaceOnUse" x1="17486.1" y1="6643.55" x2="20690.7" y2="6643.55"> <stop offset="0" style="stop-color:#E73A3F"/> <stop offset="0.521569" style="stop-color:#B32322"/> <stop offset="1" style="stop-color:#8E241F"/> </linearGradient> <linearGradient id="id7" gradientUnits="userSpaceOnUse" xlink:href="#id6" x1="10246.7" y1="7854.3" x2="13451.3" y2="7854.3"> </linearGradient> <linearGradient id="id8" gradientUnits="userSpaceOnUse" xlink:href="#id6" x1="3007.25" y1="8655.45" x2="6211.86" y2="8655.45"> </linearGradient> <linearGradient id="id9" gradientUnits="userSpaceOnUse" xlink:href="#id6" x1="3007.25" y1="8235.84" x2="6211.86" y2="8235.84"> </linearGradient> <linearGradient id="id10" gradientUnits="userSpaceOnUse" x1="23052.1" y1="10734.4" x2="29602.5" y2="10734.4"> <stop offset="0" style="stop-color:#623620"/> <stop offset="0.121569" style="stop-color:#CC9E20"/> <stop offset="0.239216" style="stop-color:white"/> <stop offset="0.521569" style="stop-color:#CF9A30"/> <stop offset="1" style="stop-color:#662D29"/> </linearGradient> <linearGradient id="id11" gradientUnits="userSpaceOnUse" xlink:href="#id10" x1="15812.7" y1="10734.4" x2="22363.1" y2="10734.4"> </linearGradient> <linearGradient id="id12" gradientUnits="userSpaceOnUse" xlink:href="#id10" x1="8573.26" y1="10734.4" x2="15123.7" y2="10734.4"> </linearGradient> <linearGradient id="id13" gradientUnits="userSpaceOnUse" xlink:href="#id10" x1="1334.85" y1="10734.4" x2="7885.27" y2="10734.4"> </linearGradient> <linearGradient id="id14" gradientUnits="userSpaceOnUse" xlink:href="#id0" x1="17672" y1="11773.2" x2="11814" y2="15589.9"> </linearGradient> <linearGradient id="id15" gradientUnits="userSpaceOnUse" xlink:href="#id10" x1="15558.5" y1="10331.9" x2="15558.5" y2="12662.2"> </linearGradient> <linearGradient id="id16" gradientUnits="userSpaceOnUse" xlink:href="#id0" x1="12150.9" y1="14232.1" x2="7326.97" y2="9163.36"> </linearGradient> <linearGradient id="id17" gradientUnits="userSpaceOnUse" xlink:href="#id0" x1="28440.8" y1="14232.1" x2="23616.9" y2="9163.36"> </linearGradient> <linearGradient id="id18" gradientUnits="userSpaceOnUse" xlink:href="#id0" x1="8927.13" y1="15420.8" x2="8221.99" y2="11861.8"> </linearGradient> <linearGradient id="id19" gradientUnits="userSpaceOnUse" xlink:href="#id0" x1="25217" y1="15420.8" x2="24511.9" y2="11861.8"> </linearGradient> <linearGradient id="id20" gradientUnits="userSpaceOnUse" xlink:href="#id0" x1="3989.36" y1="15549.4" x2="2460.2" y2="12248.8"> </linearGradient> <linearGradient id="id21" gradientUnits="userSpaceOnUse" xlink:href="#id0" x1="19998.3" y1="15549.4" x2="18469.2" y2="12248.8"> </linearGradient> <linearGradient id="id22" gradientUnits="userSpaceOnUse" xlink:href="#id0" x1="15060" y1="9863.08" x2="13381.1" y2="13216.8"> </linearGradient> <radialGradient id="id23" gradientUnits="objectBoundingBox" cx="50%" cy="50%" r="50%" fx="50%" fy="50%"> <stop offset="0" style="stop-color:#EBECEC"/> <stop offset="1" style="stop-color:#F5B2B6"/> <stop offset="1" style="stop-color:#F5B2B6"/> </radialGradient> <radialGradient id="id24" gradientUnits="objectBoundingBox" xlink:href="#id23" cx="50%" cy="50%" r="50%" fx="50%" fy="50%"> </radialGradient> <radialGradient id="id25" gradientUnits="objectBoundingBox" xlink:href="#id23" cx="50%" cy="50%" r="50%" fx="50%" fy="50%"> </radialGradient> <radialGradient id="id26" gradientUnits="objectBoundingBox" xlink:href="#id23" cx="50%" cy="50%" r="50%" fx="50%" fy="50%"> </radialGradient> </defs> <g id="Ebene_x0020_1"> <metadata id="CorelCorpID_0Corel-Layer"/> <g id="_876414320"> <path class="fil0" d="M30458 12662l-29743 0c-505,-747 -523,-1523 0,-2330 9914,0 19828,0 29743,0 336,765 467,1531 0,2330z"/> <path class="fil1" d="M23052 10827c12,402 1474,728 3275,728 1801,0 3263,-326 3275,-728l1 0 0 -913 -6551 0 0 913z"/> <ellipse class="fil2" cx="26327" cy="9931" rx="3275" ry="733"/> <ellipse class="fil3" cx="26327" cy="9931" rx="2980" ry="667"/> <path class="fil4" d="M15813 10827c12,402 1474,728 3274,728 1802,0 3264,-326 3275,-728l1 0 0 -913 -6550 0 0 913z"/> <ellipse class="fil2" cx="19087" cy="9931" rx="3275" ry="733"/> <ellipse class="fil3" cx="19087" cy="9931" rx="2980" ry="667"/> <path class="fil5" d="M8573 10827c12,402 1474,728 3275,728 1802,0 3264,-326 3275,-728l1 0 0 -913 -6551 0 0 913z"/> <ellipse class="fil2" cx="11848" cy="9931" rx="3275" ry="733"/> <ellipse class="fil3" cx="11848" cy="9931" rx="2980" ry="667"/> <path class="fil6" d="M1335 10827c12,402 1474,728 3275,728 1801,0 3263,-326 3274,-728l1 0 0 -913 -6550 0 0 913z"/> <ellipse class="fil2" cx="4610" cy="9931" rx="3275" ry="733"/> <ellipse class="fil3" cx="4610" cy="9931" rx="2980" ry="667"/> <path class="fil7" d="M6212 7058c-14,-98 -174,-162 -275,-183 -164,-33 -355,53 -512,32 -217,-28 -408,-122 -612,-129 -296,-10 -753,-8 -1029,22 -192,20 -323,117 -507,153 -125,25 -268,40 -270,105l0 2646 3205 0 0 -2646z"/> <path class="fil8" d="M6212 7201c-33,-8 -63,-27 -90,-50 -2,-1 -3,-2 -4,-3 -59,-50 -113,-115 -181,-129 -164,-33 -355,53 -512,31 -217,-28 -408,-122 -612,-128 -296,-10 -753,-8 -1029,22 -192,20 -323,116 -507,153 -125,25 -150,74 -270,104l0 637 3205 0 0 -637z"/> <path class="fil3" d="M3936 6445c145,871 1191,782 1314,0 106,-668 -438,-1281 -657,-1920 -220,639 -770,1253 -657,1920z"/> <path class="fil9" d="M4077 6690c114,539 934,485 1031,0 83,-416 -231,-878 -515,-1194 -285,341 -603,779 -516,1194z"/> <path class="fil10" d="M4251 6616c0,-3 361,-77 380,297 5,121 -19,244 -45,349 -8,29 -45,34 -47,0 -6,-107 34,-211 27,-318 -18,-366 -310,-211 -315,-328z"/> <path class="fil11" d="M4623 7073c-8,66 -23,131 -37,189 -8,29 -45,34 -47,0 -3,-64 8,-126 18,-188 23,1 44,1 66,-1z"/> <path class="fil12" d="M6212 7058c-28,12 -55,26 -81,42 -16,10 5,82 -11,92 -15,10 -65,-43 -78,-33 -73,50 -144,100 -224,124 -78,25 -185,-28 -263,-10 -165,40 -300,165 -465,181 -165,17 -360,-74 -525,-78 -220,-6 -455,38 -676,-2 -175,-31 -334,-141 -509,-193 -124,-36 -250,-77 -373,-123l0 2761c0,149 17,174 129,209 1027,317 2005,355 3000,-21 74,-28 73,-125 73,-210 0,-2869 3,129 3,-2739z"/> <path class="fil13" d="M13451 5326c-14,-98 -174,-163 -274,-184 -165,-33 -356,53 -513,32 -216,-28 -407,-122 -613,-129 -294,-10 -752,-8 -1027,22 -192,20 -324,117 -508,154 -124,25 -267,40 -269,105l0 4438 3204 0 0 -4438z"/> <path class="fil14" d="M13451 5469c-33,-8 -63,-27 -90,-50 -2,-1 -3,-2 -4,-3 -59,-50 -114,-115 -180,-129 -165,-33 -356,53 -513,31 -216,-28 -407,-123 -613,-129 -294,-10 -752,-8 -1027,22 -192,21 -324,117 -508,154 -124,25 -149,74 -269,104l0 637 3204 0 0 -637z"/> <path class="fil3" d="M11175 4713c144,870 1192,782 1315,0 105,-668 -440,-1281 -658,-1921 -219,640 -769,1254 -657,1921z"/> <path class="fil9" d="M11315 4957c115,540 936,487 1033,0 83,-415 -232,-877 -516,-1194 -285,342 -604,780 -517,1194z"/> <path class="fil10" d="M11490 4883c0,-3 361,-76 379,297 6,122 -18,245 -45,350 -7,29 -44,34 -46,0 -5,-107 34,-211 28,-319 -18,-365 -311,-211 -316,-328z"/> <path class="fil11" d="M11862 5341c-8,66 -23,131 -38,189 -7,29 -44,34 -46,0 -3,-64 9,-126 19,-188 21,1 43,1 65,-1z"/> <path class="fil15" d="M13451 5326c-29,12 -55,26 -81,42 -16,10 5,82 -11,92 -15,10 -65,-43 -78,-33 -73,50 -143,100 -224,124 -77,24 -186,-28 -263,-10 -165,40 -299,164 -465,180 -165,17 -360,-74 -524,-78 -220,-6 -456,38 -677,-2 -175,-31 -334,-140 -509,-192 -125,-36 -249,-77 -372,-123l0 4493c0,149 16,174 129,209 1026,317 2005,355 2999,-21 74,-28 73,-125 73,-210 0,-2869 3,-1603 3,-4471z"/> <path class="fil16" d="M20691 3854c-14,-99 -176,-163 -275,-184 -165,-33 -356,53 -512,32 -217,-28 -408,-122 -613,-129 -295,-10 -752,-8 -1028,22 -192,20 -323,117 -508,153 -125,25 -267,40 -269,106l0 5870 3205 0 0 -5870z"/> <path class="fil17" d="M20691 3997c-34,-8 -63,-27 -90,-50 -2,-1 -3,-2 -4,-3 -60,-50 -115,-115 -181,-130 -165,-33 -356,54 -512,32 -217,-29 -408,-123 -613,-129 -295,-10 -752,-8 -1028,22 -192,20 -323,117 -508,154 -125,25 -149,74 -269,104l0 637 3205 0 0 -637z"/> <path class="fil3" d="M18413 3241c146,870 1192,782 1316,0 104,-668 -439,-1281 -658,-1921 -219,640 -769,1254 -658,1921z"/> <path class="fil9" d="M18555 3485c115,540 935,486 1032,0 83,-416 -231,-877 -516,-1194 -285,342 -604,779 -516,1194z"/> <path class="fil10" d="M18729 3411c0,-3 361,-76 379,297 6,122 -18,245 -45,350 -8,29 -44,34 -46,0 -6,-107 33,-211 28,-319 -18,-365 -311,-211 -316,-328z"/> <path class="fil11" d="M19100 3869c-7,66 -22,131 -37,189 -8,29 -44,34 -46,0 -3,-64 9,-126 19,-188 21,1 43,1 64,-1z"/> <path class="fil18" d="M20691 3854c-29,12 -55,26 -82,42 -15,10 5,82 -10,92 -15,10 -66,-43 -80,-33 -72,50 -143,100 -223,124 -77,24 -185,-28 -262,-10 -165,39 -300,164 -466,180 -164,17 -359,-74 -524,-78 -221,-6 -455,38 -678,-2 -174,-31 -332,-140 -507,-192 -126,-36 -250,-77 -373,-123l0 5965c0,149 16,174 129,209 1026,317 2005,355 2999,-21 75,-28 74,-125 74,-210 0,-2869 3,-3075 3,-5943z"/> <path class="fil19" d="M27929 2533c-13,-97 -174,-163 -274,-183 -165,-34 -356,52 -512,32 -217,-29 -408,-123 -613,-129 -295,-10 -753,-8 -1028,21 -192,21 -323,118 -507,154 -125,25 -269,41 -271,105l0 7201 3205 0 0 -7201z"/> <path class="fil20" d="M27929 2676c-33,-7 -62,-27 -90,-50 -2,-1 -3,-1 -3,-2 -59,-50 -114,-116 -181,-130 -165,-33 -356,53 -512,32 -217,-29 -408,-124 -613,-130 -295,-9 -753,-7 -1028,22 -192,22 -323,117 -507,155 -125,24 -149,73 -271,103l0 637 3205 0 0 -637z"/> <path class="fil3" d="M25653 1921c145,870 1192,782 1315,0 105,-669 -439,-1281 -657,-1921 -220,640 -769,1253 -658,1921z"/> <path class="fil9" d="M25794 2165c115,540 935,486 1033,0 83,-415 -232,-877 -516,-1194 -286,341 -604,780 -517,1194z"/> <path class="fil10" d="M25968 2090c0,-3 361,-75 380,298 6,121 -19,244 -45,349 -8,29 -44,34 -46,0 -6,-107 33,-210 27,-319 -17,-365 -311,-210 -316,-328z"/> <path class="fil11" d="M26340 2548c-8,67 -22,131 -37,189 -8,29 -44,34 -46,0 -3,-64 9,-125 19,-188 21,1 43,1 64,-1z"/> <path class="fil21" d="M27929 2533c-28,12 -54,27 -81,43 -15,9 5,82 -11,92 -14,9 -64,-43 -78,-34 -72,50 -143,100 -223,125 -78,23 -186,-29 -263,-10 -166,39 -300,163 -466,180 -164,16 -359,-75 -524,-78 -221,-6 -456,38 -677,-2 -174,-32 -334,-140 -509,-192 -124,-36 -248,-78 -373,-124l0 7286c0,149 18,174 131,209 1025,317 2005,355 2998,-21 74,-28 74,-125 74,-210 0,-2869 2,-4395 2,-7264z"/> <g> <g> <path class="fil22" d="M7660 14696c-219,-253 -1391,-1041 -1719,-1283 290,415 1334,1051 1719,1283z"/> <path class="fil22" d="M1489 12423c-135,307 -1021,1406 -1264,1734 155,-483 965,-1398 1264,-1734z"/> <path class="fil22" d="M1706 12499c-149,301 -1084,1359 -1341,1676 177,-475 1026,-1354 1341,-1676z"/> <path class="fil22" d="M1868 15405c-209,-263 -1344,-1103 -1660,-1360 271,428 1285,1110 1660,1360z"/> <path class="fil22" d="M2113 15362c-220,-253 -1391,-1042 -1720,-1284 291,415 1334,1051 1720,1284z"/> <path class="fil23" d="M6955 11742c-136,307 -1022,1406 -1264,1734 155,-482 964,-1399 1264,-1734z"/> <path class="fil24" d="M3927 12132c-135,307 -1022,1406 -1264,1734 155,-482 964,-1398 1264,-1734z"/> <path class="fil23" d="M7200 11806c-149,300 -1084,1358 -1341,1675 177,-475 1027,-1353 1341,-1675z"/> <path class="fil24" d="M4238 12158c-149,301 -1084,1359 -1341,1676 177,-475 1026,-1354 1341,-1676z"/> <path class="fil22" d="M5002 11963c-135,307 -1022,1406 -1264,1734 155,-482 964,-1398 1264,-1734z"/> <path class="fil22" d="M1951 12442c-135,307 -1021,1406 -1264,1734 155,-482 964,-1399 1264,-1734z"/> <path class="fil22" d="M5254 11966c-149,300 -1084,1358 -1341,1675 177,-475 1026,-1353 1341,-1675z"/> <path class="fil22" d="M2203 12444c-149,301 -1085,1359 -1341,1676 177,-475 1026,-1354 1341,-1676z"/> <path class="fil22" d="M5496 11886c-135,307 -1022,1406 -1264,1734 155,-482 964,-1398 1264,-1734z"/> <path class="fil24" d="M2445 12364c-135,307 -1022,1406 -1264,1734 155,-482 964,-1398 1264,-1734z"/> <path class="fil22" d="M5751 11910c-150,301 -1085,1359 -1341,1676 177,-475 1026,-1353 1341,-1676z"/> <path class="fil24" d="M2699 12389c-149,301 -1083,1359 -1340,1675 176,-475 1026,-1353 1340,-1675z"/> <path class="fil22" d="M5990 11808c-135,307 -1022,1407 -1264,1735 156,-483 964,-1399 1264,-1735z"/> <path class="fil24" d="M2939 12287c-135,307 -1022,1406 -1264,1734 155,-483 964,-1398 1264,-1734z"/> <path class="fil22" d="M6247 11855c-148,301 -1083,1359 -1340,1676 176,-475 1026,-1353 1340,-1676z"/> <path class="fil24" d="M3238 12297c-149,300 -1084,1359 -1340,1675 176,-475 1025,-1353 1340,-1675z"/> <path class="fil22" d="M6484 11731c-135,307 -1022,1406 -1264,1734 156,-482 964,-1398 1264,-1734z"/> <path class="fil24" d="M3433 12210c-135,306 -1022,1405 -1264,1733 155,-482 964,-1398 1264,-1733z"/> <path class="fil23" d="M6744 11800c-148,300 -1083,1359 -1340,1676 176,-475 1026,-1354 1340,-1676z"/> <path class="fil24" d="M3721 12241c-149,300 -1084,1358 -1340,1675 176,-475 1026,-1354 1340,-1675z"/> <path class="fil22" d="M4508 12041c-135,307 -1022,1406 -1264,1734 155,-483 964,-1398 1264,-1734z"/> <path class="fil22" d="M4756 12021c-148,300 -1083,1358 -1340,1675 177,-474 1026,-1353 1340,-1675z"/> <path class="fil22" d="M7428 14852c-208,-263 -1342,-1104 -1660,-1360 272,427 1286,1110 1660,1360z"/> <path class="fil22" d="M4356 15157c-209,-263 -1344,-1103 -1660,-1359 271,428 1285,1110 1660,1359z"/> <path class="fil22" d="M4587 15003c-220,-254 -1391,-1042 -1719,-1284 290,415 1334,1051 1719,1284z"/> <path class="fil22" d="M5438 15050c-208,-263 -1343,-1104 -1660,-1360 272,428 1286,1110 1660,1360z"/> <path class="fil22" d="M2407 15426c-209,-262 -1343,-1103 -1660,-1359 271,428 1285,1110 1660,1359z"/> <path class="fil25" d="M5681 14984c-220,-253 -1391,-1042 -1719,-1284 290,415 1333,1052 1719,1284z"/> <path class="fil26" d="M2623 15345c-220,-254 -1391,-1042 -1719,-1284 290,415 1334,1051 1719,1284z"/> <path class="fil25" d="M5936 15000c-208,-263 -1343,-1103 -1660,-1359 272,427 1285,1109 1660,1359z"/> <path class="fil22" d="M2970 15452c-208,-264 -1343,-1104 -1660,-1360 272,427 1285,1110 1660,1360z"/> <path class="fil25" d="M6176 14912c-220,-253 -1391,-1042 -1720,-1284 291,416 1334,1052 1720,1284z"/> <path class="fil22" d="M3103 15218c-220,-253 -1392,-1042 -1720,-1284 291,415 1334,1051 1720,1284z"/> <path class="fil22" d="M6434 14951c-209,-263 -1344,-1104 -1661,-1360 272,427 1286,1110 1661,1360z"/> <path class="fil22" d="M3360 15256c-208,-263 -1343,-1103 -1660,-1359 272,428 1286,1110 1660,1359z"/> <path class="fil22" d="M6671 14840c-220,-253 -1392,-1042 -1720,-1283 291,415 1334,1051 1720,1283z"/> <path class="fil22" d="M3597 15146c-219,-253 -1391,-1041 -1719,-1283 291,414 1334,1051 1719,1283z"/> <path class="fil22" d="M6931 14901c-208,-263 -1343,-1103 -1660,-1359 271,427 1285,1109 1660,1359z"/> <path class="fil22" d="M3858 15207c-208,-263 -1343,-1103 -1660,-1360 272,428 1285,1110 1660,1360z"/> <path class="fil22" d="M7166 14769c-220,-254 -1392,-1042 -1720,-1284 291,415 1334,1051 1720,1284z"/> <path class="fil22" d="M4092 15074c-220,-253 -1391,-1042 -1719,-1284 290,416 1334,1052 1719,1284z"/> <path class="fil22" d="M4940 15099c-207,-263 -1342,-1103 -1660,-1359 272,427 1286,1109 1660,1359z"/> <path class="fil22" d="M5186 15056c-220,-254 -1391,-1042 -1719,-1284 290,415 1334,1051 1719,1284z"/> <polygon class="fil27" points="6450,13610 6133,13404 4301,13460 3100,13649 1882,13737 1068,14070 0,13904 26,14156 1119,14395 1868,13995 3531,13812 4548,13652 5958,13585 "/> <path class="fil22" d="M8019 10261c-317,-110 -1726,-206 -2131,-252 459,214 1681,244 2131,252z"/> <path class="fil22" d="M1538 11377c36,334 -182,1729 -227,2134 -107,-495 135,-1693 227,-2134z"/> <path class="fil22" d="M1763 11336c22,334 -259,1718 -323,2121 -84,-500 212,-1686 323,-2121z"/> <path class="fil22" d="M3356 13771c-311,-124 -1714,-284 -2117,-348 449,235 1668,319 2117,348z"/> <path class="fil22" d="M3547 13611c-316,-110 -1725,-207 -2130,-252 459,214 1680,243 2130,252z"/> <path class="fil23" d="M5930 8055c37,333 -181,1728 -227,2133 -106,-495 136,-1692 227,-2133z"/> <path class="fil24" d="M3504 9907c36,333 -182,1728 -228,2134 -107,-496 136,-1694 228,-2134z"/> <path class="fil23" d="M6175 7987c21,335 -259,1719 -323,2122 -85,-500 212,-1686 323,-2122z"/> <path class="fil24" d="M3786 9774c22,335 -259,1719 -323,2121 -85,-499 212,-1685 323,-2121z"/> <path class="fil22" d="M4351 9223c36,333 -182,1728 -228,2134 -107,-495 136,-1693 228,-2134z"/> <path class="fil22" d="M1947 11163c37,333 -182,1728 -227,2134 -107,-496 136,-1694 227,-2134z"/> <path class="fil22" d="M4570 9099c20,335 -260,1719 -324,2122 -84,-500 212,-1685 324,-2122z"/> <path class="fil22" d="M2166 11039c22,335 -259,1719 -323,2122 -85,-500 212,-1686 323,-2122z"/> <path class="fil22" d="M4740 8909c36,333 -182,1728 -228,2133 -107,-495 136,-1692 228,-2133z"/> <path class="fil24" d="M2336 10849c37,333 -182,1728 -227,2133 -107,-495 136,-1692 227,-2133z"/> <path class="fil22" d="M4972 8803c21,335 -259,1719 -323,2121 -84,-499 212,-1685 323,-2121z"/> <path class="fil24" d="M2569 10743c22,335 -259,1719 -323,2121 -85,-500 212,-1685 323,-2121z"/> <path class="fil22" d="M5129 8595c36,333 -182,1728 -228,2134 -107,-496 136,-1693 228,-2134z"/> <path class="fil24" d="M2725 10535c37,333 -181,1728 -227,2133 -107,-495 136,-1692 227,-2133z"/> <path class="fil22" d="M5375 8507c21,334 -260,1718 -323,2121 -85,-500 212,-1685 323,-2121z"/> <path class="fil24" d="M2989 10394c22,334 -259,1718 -323,2121 -84,-500 212,-1685 323,-2121z"/> <path class="fil22" d="M5518 8281c36,333 -182,1728 -228,2134 -107,-496 136,-1693 228,-2134z"/> <path class="fil24" d="M3115 10220c36,334 -182,1729 -228,2134 -107,-495 136,-1693 228,-2134z"/> <path class="fil23" d="M5778 8210c21,335 -260,1719 -323,2122 -85,-500 212,-1685 323,-2122z"/> <path class="fil24" d="M3379 10103c22,335 -259,1719 -323,2122 -84,-500 213,-1686 323,-2122z"/> <path class="fil22" d="M3962 9537c36,334 -182,1729 -228,2134 -107,-496 136,-1693 228,-2134z"/> <path class="fil22" d="M4167 9396c21,334 -260,1718 -324,2121 -84,-500 212,-1685 324,-2121z"/> <path class="fil22" d="M7896 10511c-312,-124 -1715,-284 -2118,-347 449,234 1669,318 2118,347z"/> <path class="fil22" d="M5387 12312c-311,-123 -1714,-283 -2117,-347 449,234 1668,318 2117,347z"/> <path class="fil22" d="M5510 12062c-316,-109 -1725,-206 -2130,-252 459,214 1681,244 2130,252z"/> <path class="fil22" d="M6271 11678c-312,-124 -1714,-284 -2117,-348 449,235 1668,319 2117,348z"/> <path class="fil22" d="M3834 13520c-311,-123 -1714,-284 -2117,-348 449,235 1668,319 2117,348z"/> <path class="fil25" d="M6448 11499c-316,-109 -1725,-206 -2130,-252 459,214 1680,244 2130,252z"/> <path class="fil26" d="M3981 13341c-317,-110 -1726,-207 -2131,-252 460,214 1681,243 2131,252z"/> <path class="fil25" d="M6678 11386c-312,-124 -1715,-284 -2118,-347 449,234 1668,318 2118,347z"/> <path class="fil22" d="M4335 13260c-312,-124 -1715,-284 -2118,-348 450,235 1669,319 2118,348z"/> <path class="fil25" d="M6841 11190c-317,-110 -1726,-207 -2131,-252 459,214 1681,243 2131,252z"/> <path class="fil22" d="M4333 12991c-317,-109 -1726,-206 -2131,-252 459,214 1681,244 2131,252z"/> <path class="fil22" d="M7084 11094c-312,-123 -1715,-284 -2118,-347 449,234 1668,318 2118,347z"/> <path class="fil22" d="M4575 12896c-312,-124 -1715,-284 -2118,-348 450,235 1669,319 2118,348z"/> <path class="fil22" d="M7234 10880c-317,-109 -1726,-206 -2131,-252 459,214 1681,244 2131,252z"/> <path class="fil22" d="M4725 12682c-316,-110 -1726,-207 -2131,-252 460,214 1681,243 2131,252z"/> <path class="fil22" d="M7490 10803c-312,-124 -1715,-284 -2118,-348 449,235 1668,319 2118,348z"/> <path class="fil22" d="M4981 12604c-311,-124 -1714,-284 -2117,-347 449,234 1668,318 2117,347z"/> <path class="fil22" d="M7626 10570c-316,-109 -1725,-206 -2131,-251 460,214 1681,243 2131,251z"/> <path class="fil22" d="M5118 12372c-317,-109 -1726,-206 -2131,-252 459,214 1681,244 2131,252z"/> <path class="fil22" d="M5865 11969c-311,-123 -1714,-284 -2117,-347 449,234 1668,318 2117,347z"/> <path class="fil22" d="M6056 11809c-317,-109 -1726,-206 -2131,-252 459,214 1681,244 2131,252z"/> <polygon class="fil28" points="6428,9926 6050,9905 4492,10870 3545,11634 2536,12319 1997,13014 989,13405 1138,13610 2203,13270 2653,12550 4001,11559 4802,10912 5989,10149 "/> </g> <g> <path class="fil22" d="M23669 14696c-219,-253 -1391,-1041 -1719,-1283 290,415 1334,1051 1719,1283z"/> <path class="fil22" d="M17498 12423c-135,307 -1021,1406 -1264,1734 155,-483 965,-1398 1264,-1734z"/> <path class="fil22" d="M17714 12499c-148,301 -1083,1359 -1340,1676 177,-475 1026,-1354 1340,-1676z"/> <path class="fil22" d="M17877 15405c-209,-263 -1344,-1103 -1660,-1360 271,428 1285,1110 1660,1360z"/> <path class="fil22" d="M18122 15362c-220,-253 -1391,-1042 -1720,-1284 291,415 1334,1051 1720,1284z"/> <path class="fil23" d="M22964 11742c-136,307 -1022,1406 -1264,1734 155,-482 964,-1399 1264,-1734z"/> <path class="fil24" d="M19936 12132c-135,307 -1022,1406 -1264,1734 155,-482 964,-1398 1264,-1734z"/> <path class="fil23" d="M23209 11806c-149,300 -1084,1358 -1341,1675 177,-475 1027,-1353 1341,-1675z"/> <path class="fil24" d="M20247 12158c-149,301 -1084,1359 -1341,1676 177,-475 1026,-1354 1341,-1676z"/> <path class="fil22" d="M21011 11963c-135,307 -1022,1406 -1264,1734 155,-482 964,-1398 1264,-1734z"/> <path class="fil22" d="M17960 12442c-135,307 -1021,1406 -1264,1734 155,-482 964,-1399 1264,-1734z"/> <path class="fil22" d="M21262 11966c-148,300 -1083,1358 -1340,1675 177,-475 1026,-1353 1340,-1675z"/> <path class="fil22" d="M18212 12444c-149,301 -1085,1359 -1341,1676 177,-475 1026,-1354 1341,-1676z"/> <path class="fil22" d="M21505 11886c-135,307 -1022,1406 -1264,1734 155,-482 964,-1398 1264,-1734z"/> <path class="fil24" d="M18454 12364c-135,307 -1022,1406 -1264,1734 155,-482 964,-1398 1264,-1734z"/> <path class="fil22" d="M21760 11910c-150,301 -1085,1359 -1341,1676 177,-475 1026,-1353 1341,-1676z"/> <path class="fil24" d="M18708 12389c-149,301 -1083,1359 -1340,1675 176,-475 1026,-1353 1340,-1675z"/> <path class="fil22" d="M21999 11808c-135,307 -1022,1407 -1264,1735 156,-483 964,-1399 1264,-1735z"/> <path class="fil24" d="M18948 12287c-135,307 -1022,1406 -1264,1734 155,-483 964,-1398 1264,-1734z"/> <path class="fil22" d="M22256 11855c-149,301 -1083,1359 -1340,1676 176,-475 1026,-1353 1340,-1676z"/> <path class="fil24" d="M19247 12297c-149,300 -1084,1359 -1340,1675 176,-475 1025,-1353 1340,-1675z"/> <path class="fil22" d="M22493 11731c-135,307 -1022,1406 -1264,1734 155,-482 964,-1398 1264,-1734z"/> <path class="fil24" d="M19442 12210c-135,306 -1022,1405 -1264,1733 155,-482 964,-1398 1264,-1733z"/> <path class="fil23" d="M22753 11800c-148,300 -1083,1359 -1340,1676 176,-475 1026,-1354 1340,-1676z"/> <path class="fil24" d="M19730 12241c-149,300 -1084,1358 -1340,1675 176,-475 1026,-1354 1340,-1675z"/> <path class="fil22" d="M20517 12041c-135,307 -1022,1406 -1264,1734 155,-483 964,-1398 1264,-1734z"/> <path class="fil22" d="M20765 12021c-148,300 -1083,1358 -1340,1675 177,-474 1026,-1353 1340,-1675z"/> <path class="fil22" d="M23437 14852c-208,-263 -1342,-1104 -1660,-1360 272,427 1286,1110 1660,1360z"/> <path class="fil22" d="M20364 15157c-208,-263 -1343,-1103 -1660,-1359 272,428 1286,1110 1660,1359z"/> <path class="fil22" d="M20596 15003c-220,-254 -1391,-1042 -1719,-1284 290,415 1334,1051 1719,1284z"/> <path class="fil22" d="M21447 15050c-208,-263 -1343,-1104 -1660,-1360 272,428 1285,1110 1660,1360z"/> <path class="fil22" d="M18416 15426c-209,-262 -1343,-1103 -1661,-1359 272,428 1286,1110 1661,1359z"/> <path class="fil25" d="M21690 14984c-220,-253 -1391,-1042 -1719,-1284 290,415 1333,1052 1719,1284z"/> <path class="fil26" d="M18632 15345c-220,-254 -1391,-1042 -1719,-1284 290,415 1334,1051 1719,1284z"/> <path class="fil25" d="M21945 15000c-208,-263 -1343,-1103 -1660,-1359 272,427 1285,1109 1660,1359z"/> <path class="fil22" d="M18979 15452c-208,-264 -1343,-1104 -1660,-1360 272,427 1285,1110 1660,1360z"/> <path class="fil25" d="M22185 14912c-220,-253 -1391,-1042 -1720,-1284 291,416 1334,1052 1720,1284z"/> <path class="fil22" d="M19112 15218c-220,-253 -1392,-1042 -1720,-1284 291,415 1334,1051 1720,1284z"/> <path class="fil22" d="M22442 14951c-208,-263 -1343,-1104 -1660,-1360 272,427 1286,1110 1660,1360z"/> <path class="fil22" d="M19369 15256c-208,-263 -1343,-1103 -1660,-1359 272,428 1286,1110 1660,1359z"/> <path class="fil22" d="M22680 14840c-220,-253 -1392,-1042 -1720,-1283 291,415 1334,1051 1720,1283z"/> <path class="fil22" d="M19606 15146c-219,-253 -1391,-1041 -1719,-1283 291,414 1334,1051 1719,1283z"/> <path class="fil22" d="M22940 14901c-208,-263 -1343,-1103 -1660,-1359 271,427 1285,1109 1660,1359z"/> <path class="fil22" d="M19867 15207c-208,-263 -1343,-1103 -1660,-1360 272,428 1285,1110 1660,1360z"/> <path class="fil22" d="M23175 14769c-220,-254 -1392,-1042 -1720,-1284 291,415 1334,1051 1720,1284z"/> <path class="fil22" d="M20101 15074c-220,-253 -1391,-1042 -1719,-1284 290,416 1334,1052 1719,1284z"/> <path class="fil22" d="M20949 15099c-207,-263 -1342,-1103 -1660,-1359 272,427 1286,1109 1660,1359z"/> <path class="fil22" d="M21195 15056c-220,-254 -1391,-1042 -1719,-1284 290,415 1334,1051 1719,1284z"/> <polygon class="fil29" points="22459,13610 22142,13404 20310,13460 19109,13649 17891,13737 17077,14070 16009,13904 16035,14156 17128,14395 17877,13995 19540,13812 20557,13652 21967,13585 "/> <path class="fil22" d="M24028 10261c-317,-110 -1726,-206 -2131,-252 459,214 1681,244 2131,252z"/> <path class="fil22" d="M17547 11377c36,334 -182,1729 -227,2134 -107,-495 135,-1693 227,-2134z"/> <path class="fil22" d="M17772 11336c22,334 -259,1718 -323,2121 -84,-500 212,-1686 323,-2121z"/> <path class="fil22" d="M19365 13771c-311,-124 -1714,-284 -2117,-348 449,235 1668,319 2117,348z"/> <path class="fil22" d="M19556 13611c-316,-110 -1725,-207 -2131,-252 460,214 1681,243 2131,252z"/> <path class="fil23" d="M21939 8055c37,333 -181,1728 -227,2133 -106,-495 136,-1692 227,-2133z"/> <path class="fil24" d="M19513 9907c36,333 -182,1728 -228,2134 -107,-496 136,-1694 228,-2134z"/> <path class="fil23" d="M22184 7987c21,335 -259,1719 -323,2122 -85,-500 212,-1686 323,-2122z"/> <path class="fil24" d="M19795 9774c22,335 -259,1719 -323,2121 -85,-499 212,-1685 323,-2121z"/> <path class="fil22" d="M20360 9223c36,333 -182,1728 -228,2134 -107,-495 136,-1693 228,-2134z"/> <path class="fil22" d="M17956 11163c37,333 -182,1728 -227,2134 -107,-496 136,-1694 227,-2134z"/> <path class="fil22" d="M20579 9099c20,335 -260,1719 -324,2122 -84,-500 212,-1685 324,-2122z"/> <path class="fil22" d="M18175 11039c22,335 -259,1719 -323,2122 -85,-500 212,-1686 323,-2122z"/> <path class="fil22" d="M20749 8909c36,333 -182,1728 -228,2133 -107,-495 136,-1692 228,-2133z"/> <path class="fil24" d="M18345 10849c37,333 -182,1728 -227,2133 -107,-495 136,-1692 227,-2133z"/> <path class="fil22" d="M20981 8803c21,335 -259,1719 -323,2121 -84,-499 212,-1685 323,-2121z"/> <path class="fil24" d="M18578 10743c22,335 -259,1719 -323,2121 -85,-500 212,-1685 323,-2121z"/> <path class="fil22" d="M21138 8595c36,333 -182,1728 -228,2134 -107,-496 136,-1693 228,-2134z"/> <path class="fil24" d="M18734 10535c37,333 -181,1728 -227,2133 -107,-495 136,-1692 227,-2133z"/> <path class="fil22" d="M21384 8507c21,334 -260,1718 -323,2121 -85,-500 212,-1685 323,-2121z"/> <path class="fil24" d="M18998 10394c22,334 -259,1718 -323,2121 -85,-500 212,-1685 323,-2121z"/> <path class="fil22" d="M21527 8281c36,333 -182,1728 -228,2134 -107,-496 136,-1693 228,-2134z"/> <path class="fil24" d="M19124 10220c36,334 -182,1729 -228,2134 -107,-495 136,-1693 228,-2134z"/> <path class="fil23" d="M21787 8210c21,335 -260,1719 -323,2122 -85,-500 212,-1685 323,-2122z"/> <path class="fil24" d="M19388 10103c22,335 -259,1719 -323,2122 -84,-500 213,-1686 323,-2122z"/> <path class="fil22" d="M19971 9537c35,334 -182,1729 -228,2134 -107,-496 136,-1693 228,-2134z"/> <path class="fil22" d="M20176 9396c21,334 -260,1718 -324,2121 -84,-500 212,-1685 324,-2121z"/> <path class="fil22" d="M23905 10511c-312,-124 -1715,-284 -2118,-347 449,234 1668,318 2118,347z"/> <path class="fil22" d="M21396 12312c-311,-123 -1714,-283 -2117,-347 449,234 1668,318 2117,347z"/> <path class="fil22" d="M21519 12062c-316,-109 -1725,-206 -2130,-252 459,214 1681,244 2130,252z"/> <path class="fil22" d="M22280 11678c-312,-124 -1714,-284 -2117,-348 449,235 1668,319 2117,348z"/> <path class="fil22" d="M19843 13520c-311,-123 -1714,-284 -2117,-348 449,235 1668,319 2117,348z"/> <path class="fil25" d="M22457 11499c-316,-109 -1725,-206 -2130,-252 459,214 1680,244 2130,252z"/> <path class="fil26" d="M19990 13341c-317,-110 -1726,-207 -2131,-252 460,214 1681,243 2131,252z"/> <path class="fil25" d="M22686 11386c-311,-124 -1714,-284 -2117,-347 449,234 1668,318 2117,347z"/> <path class="fil22" d="M20344 13260c-312,-124 -1715,-284 -2118,-348 450,235 1669,319 2118,348z"/> <path class="fil25" d="M22850 11190c-317,-110 -1726,-207 -2131,-252 459,214 1681,243 2131,252z"/> <path class="fil22" d="M20341 12991c-316,-109 -1725,-206 -2130,-252 459,214 1681,244 2130,252z"/> <path class="fil22" d="M23093 11094c-312,-123 -1715,-284 -2118,-347 449,234 1668,318 2118,347z"/> <path class="fil22" d="M20584 12896c-312,-124 -1715,-284 -2118,-348 450,235 1669,319 2118,348z"/> <path class="fil22" d="M23243 10880c-317,-109 -1726,-206 -2131,-252 459,214 1681,244 2131,252z"/> <path class="fil22" d="M20734 12682c-317,-110 -1726,-207 -2131,-252 459,214 1681,243 2131,252z"/> <path class="fil22" d="M23499 10803c-312,-124 -1715,-284 -2118,-348 449,235 1668,319 2118,348z"/> <path class="fil22" d="M20990 12604c-311,-124 -1715,-284 -2117,-347 449,234 1668,318 2117,347z"/> <path class="fil22" d="M23635 10570c-317,-109 -1725,-206 -2131,-251 460,214 1681,243 2131,251z"/> <path class="fil22" d="M21127 12372c-317,-109 -1726,-206 -2131,-252 459,214 1681,244 2131,252z"/> <path class="fil22" d="M21874 11969c-311,-123 -1714,-284 -2117,-347 449,234 1668,318 2117,347z"/> <path class="fil22" d="M22065 11809c-317,-109 -1726,-206 -2131,-252 459,214 1681,244 2131,252z"/> <polygon class="fil30" points="22437,9926 22059,9905 20501,10870 19554,11634 18544,12319 18006,13014 16998,13405 17147,13610 18212,13270 18662,12550 20010,11559 20811,10912 21998,10149 "/> </g> <g> <path class="fil22" d="M19013 10743c-237,253 -1503,1041 -1858,1283 314,-415 1442,-1051 1858,-1283z"/> <path class="fil22" d="M12345 13016c-146,-307 -1104,-1406 -1366,-1734 168,483 1042,1398 1366,1734z"/> <path class="fil22" d="M12579 12940c-161,-301 -1171,-1359 -1449,-1676 191,475 1109,1354 1449,1676z"/> <path class="fil22" d="M12754 10034c-225,263 -1451,1103 -1794,1360 294,-428 1389,-1110 1794,-1360z"/> <path class="fil22" d="M13019 10077c-237,253 -1503,1042 -1858,1284 315,-415 1442,-1051 1858,-1284z"/> <path class="fil23" d="M18251 13697c-146,-307 -1104,-1406 -1366,-1734 168,482 1042,1399 1366,1734z"/> <path class="fil24" d="M14979 13307c-146,-307 -1104,-1406 -1366,-1734 168,482 1042,1398 1366,1734z"/> <path class="fil23" d="M18516 13633c-161,-300 -1171,-1358 -1449,-1675 192,475 1109,1353 1449,1675z"/> <path class="fil24" d="M15315 13281c-161,-301 -1171,-1359 -1448,-1676 190,475 1108,1354 1448,1676z"/> <path class="fil22" d="M16141 13476c-146,-307 -1104,-1406 -1366,-1734 168,482 1042,1398 1366,1734z"/> <path class="fil22" d="M12844 12997c-146,-307 -1104,-1406 -1366,-1734 168,482 1042,1399 1366,1734z"/> <path class="fil22" d="M16413 13473c-161,-300 -1171,-1358 -1449,-1675 191,475 1109,1353 1449,1675z"/> <path class="fil22" d="M13116 12995c-161,-301 -1171,-1359 -1448,-1676 190,475 1108,1354 1448,1676z"/> <path class="fil22" d="M16675 13553c-146,-307 -1104,-1406 -1366,-1734 167,482 1042,1398 1366,1734z"/> <path class="fil24" d="M13378 13075c-146,-307 -1104,-1406 -1366,-1734 168,482 1042,1398 1366,1734z"/> <path class="fil22" d="M16950 13529c-161,-301 -1172,-1359 -1449,-1676 191,475 1109,1353 1449,1676z"/> <path class="fil24" d="M13653 13050c-161,-301 -1171,-1359 -1449,-1675 191,475 1109,1353 1449,1675z"/> <path class="fil22" d="M17208 13631c-145,-307 -1104,-1407 -1365,-1735 168,483 1042,1399 1365,1735z"/> <path class="fil24" d="M13912 13152c-147,-307 -1104,-1406 -1366,-1734 168,483 1042,1398 1366,1734z"/> <path class="fil22" d="M17486 13584c-160,-301 -1170,-1359 -1448,-1676 191,475 1109,1353 1448,1676z"/> <path class="fil24" d="M14235 13142c-161,-300 -1172,-1359 -1449,-1675 191,475 1109,1353 1449,1675z"/> <path class="fil22" d="M17742 13708c-146,-307 -1104,-1406 -1365,-1734 167,482 1041,1398 1365,1734z"/> <path class="fil24" d="M14445 13229c-145,-306 -1103,-1405 -1365,-1733 167,482 1042,1398 1365,1733z"/> <path class="fil23" d="M18024 13639c-161,-300 -1171,-1359 -1449,-1676 191,475 1109,1354 1449,1676z"/> <path class="fil24" d="M14757 13198c-161,-300 -1171,-1358 -1448,-1675 190,475 1108,1354 1448,1675z"/> <path class="fil22" d="M15607 13398c-146,-307 -1104,-1406 -1366,-1734 168,483 1042,1398 1366,1734z"/> <path class="fil22" d="M15875 13418c-160,-300 -1170,-1358 -1448,-1675 191,474 1109,1353 1448,1675z"/> <path class="fil22" d="M18763 10587c-225,263 -1451,1104 -1794,1360 294,-427 1389,-1110 1794,-1360z"/> <path class="fil22" d="M15442 10282c-225,263 -1451,1103 -1793,1359 293,-428 1389,-1110 1793,-1359z"/> <path class="fil22" d="M15693 10436c-238,254 -1504,1042 -1858,1284 314,-415 1441,-1051 1858,-1284z"/> <path class="fil22" d="M16612 10389c-225,263 -1451,1104 -1794,1360 294,-428 1389,-1110 1794,-1360z"/> <path class="fil22" d="M13336 10013c-225,262 -1450,1103 -1793,1359 293,-428 1389,-1110 1793,-1359z"/> <path class="fil25" d="M16875 10455c-238,253 -1504,1042 -1858,1284 314,-415 1441,-1052 1858,-1284z"/> <path class="fil26" d="M13571 10094c-238,254 -1504,1042 -1858,1284 314,-415 1441,-1051 1858,-1284z"/> <path class="fil25" d="M17150 10439c-225,263 -1451,1103 -1794,1359 294,-427 1389,-1109 1794,-1359z"/> <path class="fil22" d="M13945 9987c-225,264 -1451,1104 -1793,1360 293,-427 1389,-1110 1793,-1360z"/> <path class="fil25" d="M17409 10527c-237,253 -1503,1042 -1858,1284 315,-416 1442,-1052 1858,-1284z"/> <path class="fil22" d="M14089 10221c-238,253 -1504,1042 -1858,1284 314,-415 1441,-1051 1858,-1284z"/> <path class="fil22" d="M17688 10488c-225,263 -1452,1104 -1794,1360 293,-427 1389,-1110 1794,-1360z"/> <path class="fil22" d="M14367 10183c-225,263 -1451,1103 -1794,1359 294,-428 1389,-1110 1794,-1359z"/> <path class="fil22" d="M17944 10599c-238,253 -1504,1042 -1858,1283 314,-415 1442,-1051 1858,-1283z"/> <path class="fil22" d="M14623 10293c-237,253 -1503,1041 -1858,1283 315,-414 1442,-1051 1858,-1283z"/> <path class="fil22" d="M18225 10538c-224,263 -1451,1103 -1794,1359 294,-427 1389,-1109 1794,-1359z"/> <path class="fil22" d="M14905 10232c-225,263 -1452,1104 -1794,1360 294,-428 1389,-1110 1794,-1360z"/> <path class="fil22" d="M18479 10670c-238,254 -1504,1042 -1858,1284 314,-415 1441,-1051 1858,-1284z"/> <path class="fil22" d="M15158 10365c-238,253 -1504,1042 -1858,1284 314,-416 1442,-1052 1858,-1284z"/> <path class="fil22" d="M16074 10340c-224,263 -1450,1103 -1793,1359 293,-427 1389,-1109 1793,-1359z"/> <path class="fil22" d="M16340 10383c-238,254 -1504,1042 -1858,1284 314,-415 1441,-1051 1858,-1284z"/> <polygon class="fil31" points="17705,11829 17363,12035 15384,11979 14085,11790 12770,11702 11890,11369 10736,11535 10764,11283 11945,11044 12755,11444 14551,11627 15651,11787 17174,11854 "/> <path class="fil22" d="M19401 15178c-342,110 -1865,206 -2303,252 497,-214 1817,-244 2303,-252z"/> <path class="fil22" d="M12398 14062c39,-334 -197,-1729 -246,-2134 -115,495 147,1693 246,2134z"/> <path class="fil22" d="M12641 14103c23,-334 -280,-1718 -349,-2121 -91,500 229,1686 349,2121z"/> <path class="fil22" d="M14363 11668c-337,124 -1853,284 -2288,348 485,-235 1803,-319 2288,-348z"/> <path class="fil22" d="M14569 11828c-342,110 -1865,207 -2302,252 496,-214 1816,-243 2302,-252z"/> <path class="fil23" d="M17144 17384c39,-333 -196,-1728 -246,-2133 -115,495 147,1692 246,2133z"/> <path class="fil24" d="M14522 15532c39,-333 -197,-1728 -246,-2134 -116,496 147,1694 246,2134z"/> <path class="fil23" d="M17408 17452c24,-335 -279,-1719 -349,-2122 -91,500 229,1686 349,2122z"/> <path class="fil24" d="M14827 15665c23,-335 -280,-1719 -349,-2121 -92,499 229,1685 349,2121z"/> <path class="fil22" d="M15437 16216c39,-333 -196,-1728 -246,-2134 -115,495 147,1693 246,2134z"/> <path class="fil22" d="M12840 14276c40,-333 -196,-1728 -245,-2133 -116,495 146,1693 245,2133z"/> <path class="fil22" d="M15674 16340c22,-335 -281,-1719 -350,-2122 -91,500 229,1685 350,2122z"/> <path class="fil22" d="M13077 14400c23,-335 -280,-1719 -349,-2122 -92,500 228,1686 349,2122z"/> <path class="fil22" d="M15858 16530c39,-333 -197,-1728 -247,-2133 -115,495 148,1692 247,2133z"/> <path class="fil24" d="M13261 14590c39,-333 -197,-1728 -246,-2133 -116,495 147,1692 246,2133z"/> <path class="fil22" d="M16108 16636c24,-335 -279,-1719 -349,-2121 -91,499 229,1685 349,2121z"/> <path class="fil24" d="M13512 14696c23,-335 -280,-1719 -349,-2121 -91,500 229,1685 349,2121z"/> <path class="fil22" d="M16278 16844c39,-333 -197,-1728 -246,-2134 -115,496 147,1693 246,2134z"/> <path class="fil24" d="M13681 14904c39,-333 -197,-1728 -246,-2133 -115,495 147,1692 246,2133z"/> <path class="fil22" d="M16544 16932c23,-334 -281,-1718 -349,-2121 -92,500 229,1685 349,2121z"/> <path class="fil24" d="M13966 15045c23,-334 -280,-1718 -349,-2121 -92,500 229,1685 349,2121z"/> <path class="fil22" d="M16698 17158c40,-333 -196,-1728 -246,-2134 -115,496 147,1693 246,2134z"/> <path class="fil24" d="M14101 15219c40,-334 -196,-1729 -245,-2134 -116,495 147,1693 245,2134z"/> <path class="fil23" d="M16979 17229c23,-335 -280,-1719 -349,-2122 -91,500 229,1685 349,2122z"/> <path class="fil24" d="M14388 15336c23,-335 -280,-1719 -350,-2122 -90,500 230,1686 350,2122z"/> <path class="fil22" d="M15017 15902c39,-334 -197,-1729 -247,-2134 -115,496 147,1693 247,2134z"/> <path class="fil22" d="M15238 16043c23,-334 -280,-1718 -349,-2121 -91,500 229,1685 349,2121z"/> <path class="fil22" d="M19268 14928c-337,124 -1853,284 -2288,347 485,-234 1802,-318 2288,-347z"/> <path class="fil22" d="M16557 13127c-336,123 -1852,283 -2288,347 486,-234 1803,-318 2288,-347z"/> <path class="fil22" d="M16690 13377c-342,109 -1864,206 -2302,252 496,-214 1816,-244 2302,-252z"/> <path class="fil22" d="M17512 13761c-337,124 -1852,284 -2288,348 486,-235 1803,-319 2288,-348z"/> <path class="fil22" d="M14879 11919c-336,123 -1853,284 -2288,348 486,-235 1803,-319 2288,-348z"/> <path class="fil25" d="M17704 13940c-342,109 -1864,206 -2303,252 497,-214 1817,-244 2303,-252z"/> <path class="fil26" d="M15038 12098c-343,110 -1865,207 -2303,252 497,-214 1816,-243 2303,-252z"/> <path class="fil25" d="M17951 14053c-337,124 -1852,284 -2288,347 485,-234 1803,-318 2288,-347z"/> <path class="fil22" d="M15420 12179c-337,124 -1853,284 -2288,348 485,-235 1803,-319 2288,-348z"/> <path class="fil25" d="M18128 14249c-342,110 -1865,207 -2302,252 496,-214 1816,-243 2302,-252z"/> <path class="fil22" d="M15417 12448c-342,109 -1864,206 -2302,252 497,-214 1817,-244 2302,-252z"/> <path class="fil22" d="M18390 14345c-337,123 -1852,284 -2288,347 485,-234 1803,-318 2288,-347z"/> <path class="fil22" d="M15679 12543c-336,124 -1852,284 -2288,348 486,-235 1803,-319 2288,-348z"/> <path class="fil22" d="M18553 14559c-343,109 -1865,206 -2303,252 496,-214 1816,-244 2303,-252z"/> <path class="fil22" d="M15842 12757c-342,110 -1865,207 -2303,252 496,-214 1817,-243 2303,-252z"/> <path class="fil22" d="M18829 14636c-337,124 -1853,284 -2288,348 485,-235 1802,-319 2288,-348z"/> <path class="fil22" d="M16118 12835c-336,124 -1852,284 -2288,347 486,-234 1803,-318 2288,-347z"/> <path class="fil22" d="M18977 14869c-343,109 -1865,206 -2303,251 497,-214 1816,-243 2303,-251z"/> <path class="fil22" d="M16266 13067c-342,109 -1864,206 -2302,252 496,-214 1816,-244 2302,-252z"/> <path class="fil22" d="M17074 13470c-337,123 -1853,284 -2289,347 486,-234 1803,-318 2289,-347z"/> <path class="fil22" d="M17280 13630c-343,109 -1865,206 -2303,252 497,-214 1817,-244 2303,-252z"/> <polygon class="fil32" points="17681,15513 17273,15534 15590,14569 14567,13805 13476,13120 12893,12425 11805,12034 11965,11829 13117,12169 13602,12889 15059,13880 15925,14527 17208,15290 "/> </g> <g> <path class="fil22" d="M13224 15559c-167,-301 -1225,-1365 -1515,-1684 197,476 1159,1360 1515,1684z"/> <path class="fil22" d="M7099 11766c-240,262 -1540,1094 -1904,1348 314,-426 1475,-1101 1904,-1348z"/> <path class="fil22" d="M7315 11896c-253,252 -1595,1032 -1971,1271 334,-412 1529,-1041 1971,-1271z"/> <path class="fil22" d="M6636 14745c-152,-308 -1154,-1414 -1427,-1744 173,484 1088,1405 1427,1744z"/> <path class="fil22" d="M6918 14766c-167,-301 -1224,-1366 -1514,-1685 198,477 1159,1361 1514,1685z"/> <path class="fil23" d="M13319 12523c-240,261 -1540,1094 -1904,1348 313,-426 1475,-1101 1904,-1348z"/> <path class="fil24" d="M9869 12116c-239,261 -1540,1094 -1903,1348 313,-426 1474,-1101 1903,-1348z"/> <path class="fil23" d="M13570 12648c-253,251 -1595,1032 -1971,1271 335,-413 1530,-1041 1971,-1271z"/> <path class="fil24" d="M10204 12222c-253,252 -1595,1032 -1971,1271 335,-412 1529,-1041 1971,-1271z"/> <path class="fil22" d="M11103 12232c-239,261 -1540,1093 -1904,1347 313,-425 1475,-1101 1904,-1347z"/> <path class="fil22" d="M7602 11904c-240,261 -1540,1094 -1904,1348 314,-426 1475,-1101 1904,-1348z"/> <path class="fil22" d="M11379 12299c-252,252 -1594,1032 -1970,1271 334,-413 1529,-1042 1970,-1271z"/> <path class="fil22" d="M7878 11971c-252,252 -1595,1032 -1970,1272 334,-413 1529,-1042 1970,-1272z"/> <path class="fil22" d="M11670 12284c-239,262 -1540,1095 -1904,1348 313,-425 1474,-1100 1904,-1348z"/> <path class="fil24" d="M8169 11957c-240,261 -1540,1093 -1904,1348 313,-426 1475,-1101 1904,-1348z"/> <path class="fil22" d="M11943 12374c-253,252 -1595,1032 -1971,1272 335,-413 1529,-1042 1971,-1272z"/> <path class="fil24" d="M8441 12047c-252,252 -1594,1032 -1970,1271 335,-413 1529,-1042 1970,-1271z"/> <path class="fil22" d="M12237 12337c-240,262 -1540,1094 -1904,1349 314,-426 1474,-1102 1904,-1349z"/> <path class="fil24" d="M8736 12010c-240,262 -1540,1094 -1904,1348 313,-426 1474,-1101 1904,-1348z"/> <path class="fil22" d="M12506 12449c-252,252 -1594,1032 -1971,1272 335,-413 1530,-1042 1971,-1272z"/> <path class="fil24" d="M9062 12097c-253,251 -1595,1032 -1971,1272 335,-414 1529,-1042 1971,-1272z"/> <path class="fil22" d="M12803 12391c-239,261 -1540,1093 -1903,1348 313,-426 1474,-1102 1903,-1348z"/> <path class="fil24" d="M9302 12063c-239,262 -1540,1094 -1903,1348 313,-426 1474,-1101 1903,-1348z"/> <path class="fil23" d="M13070 12525c-253,251 -1594,1032 -1971,1271 335,-413 1529,-1041 1971,-1271z"/> <path class="fil24" d="M9611 12168c-253,251 -1595,1031 -1971,1271 335,-413 1529,-1042 1971,-1271z"/> <path class="fil22" d="M10536 12179c-239,261 -1540,1093 -1904,1347 314,-426 1475,-1101 1904,-1347z"/> <path class="fil22" d="M10815 12223c-252,252 -1594,1032 -1970,1272 335,-413 1529,-1042 1970,-1272z"/> <path class="fil22" d="M12923 15649c-152,-307 -1153,-1413 -1427,-1743 173,484 1088,1406 1427,1743z"/> <path class="fil22" d="M9449 15149c-152,-307 -1154,-1413 -1427,-1742 172,483 1088,1404 1427,1742z"/> <path class="fil22" d="M9749 15060c-167,-302 -1224,-1367 -1514,-1685 197,476 1159,1361 1514,1685z"/> <path class="fil22" d="M10672 15325c-151,-307 -1153,-1413 -1426,-1743 173,484 1088,1406 1426,1743z"/> <path class="fil22" d="M7223 14905c-152,-308 -1153,-1413 -1427,-1743 173,484 1088,1405 1427,1743z"/> <path class="fil25" d="M10959 15325c-167,-302 -1224,-1366 -1514,-1685 197,476 1158,1361 1514,1685z"/> <path class="fil26" d="M7486 14882c-168,-302 -1225,-1366 -1515,-1685 197,477 1159,1361 1515,1685z"/> <path class="fil25" d="M11235 15406c-151,-307 -1154,-1413 -1427,-1742 173,483 1088,1404 1427,1742z"/> <path class="fil22" d="M7836 15075c-152,-308 -1154,-1414 -1427,-1743 173,483 1088,1405 1427,1743z"/> <path class="fil25" d="M11525 15384c-167,-302 -1224,-1367 -1515,-1686 199,477 1159,1361 1515,1686z"/> <path class="fil22" d="M8051 14883c-167,-301 -1225,-1366 -1515,-1684 198,476 1159,1360 1515,1684z"/> <path class="fil22" d="M11798 15487c-152,-307 -1154,-1413 -1427,-1743 173,484 1088,1406 1427,1743z"/> <path class="fil22" d="M8323 14987c-152,-307 -1153,-1413 -1427,-1742 173,483 1088,1404 1427,1742z"/> <path class="fil22" d="M12091 15442c-167,-301 -1224,-1366 -1514,-1685 197,477 1159,1361 1514,1685z"/> <path class="fil22" d="M8617 14942c-167,-301 -1225,-1366 -1515,-1684 198,475 1159,1360 1515,1684z"/> <path class="fil22" d="M12360 15568c-151,-307 -1153,-1413 -1427,-1743 173,484 1088,1405 1427,1743z"/> <path class="fil22" d="M8886 15068c-152,-308 -1154,-1413 -1427,-1743 173,484 1088,1405 1427,1743z"/> <path class="fil22" d="M12658 15501c-168,-302 -1225,-1366 -1515,-1685 197,476 1158,1360 1515,1685z"/> <path class="fil22" d="M9183 15001c-167,-301 -1225,-1367 -1515,-1685 198,476 1159,1361 1515,1685z"/> <path class="fil22" d="M10110 15244c-151,-307 -1153,-1413 -1427,-1742 173,483 1088,1404 1427,1742z"/> <path class="fil22" d="M10393 15266c-167,-301 -1225,-1366 -1515,-1685 198,476 1159,1361 1515,1685z"/> <polygon class="fil33" points="12211,14197 11923,13915 9890,13496 8511,13367 7144,13138 6149,13248 5022,12812 4976,13062 6109,13575 7052,13383 8937,13636 10105,13746 11677,14045 "/> <path class="fil22" d="M14928 11368c-317,-188 -1840,-646 -2273,-795 443,326 1780,670 2273,795z"/> <path class="fil22" d="M7461 10769c-58,331 -710,1623 -880,2002 28,-506 649,-1600 880,-2002z"/> <path class="fil22" d="M7722 10787c-76,329 -793,1593 -982,1965 55,-504 730,-1573 982,-1965z"/> <path class="fil22" d="M8757 13551c-306,-200 -1804,-717 -2228,-883 425,343 1743,739 2228,883z"/> <path class="fil22" d="M9015 13446c-316,-188 -1840,-646 -2272,-795 442,326 1779,670 2272,795z"/> <path class="fil23" d="M13279 8696c-59,332 -710,1623 -880,2002 28,-505 649,-1599 880,-2002z"/> <path class="fil24" d="M10060 9857c-59,331 -711,1622 -880,2002 28,-506 649,-1600 880,-2002z"/> <path class="fil23" d="M13568 8695c-75,328 -793,1593 -982,1965 54,-505 731,-1573 982,-1965z"/> <path class="fil24" d="M10410 9802c-75,329 -793,1593 -982,1966 54,-505 731,-1573 982,-1966z"/> <path class="fil22" d="M11194 9416c-58,331 -710,1622 -880,2002 28,-506 649,-1600 880,-2002z"/> <path class="fil22" d="M7975 10668c-58,331 -710,1622 -880,2002 29,-507 650,-1601 880,-2002z"/> <path class="fil22" d="M11472 9353c-76,329 -793,1593 -982,1966 54,-505 731,-1573 982,-1966z"/> <path class="fil22" d="M8253 10605c-75,329 -793,1593 -982,1965 54,-504 730,-1573 982,-1965z"/> <path class="fil22" d="M11715 9213c-58,332 -710,1623 -880,2002 29,-506 650,-1600 880,-2002z"/> <path class="fil24" d="M8496 10465c-58,331 -710,1623 -880,2002 29,-506 649,-1600 880,-2002z"/> <path class="fil22" d="M12002 9171c-75,329 -792,1593 -981,1965 54,-504 730,-1573 981,-1965z"/> <path class="fil24" d="M8784 10423c-75,329 -793,1593 -982,1965 54,-504 731,-1573 982,-1965z"/> <path class="fil22" d="M12237 9010c-59,332 -711,1623 -881,2003 29,-506 650,-1600 881,-2003z"/> <path class="fil24" d="M9017 10262c-58,332 -710,1623 -880,2002 29,-506 650,-1600 880,-2002z"/> <path class="fil22" d="M12534 8989c-76,329 -793,1593 -982,1966 54,-505 730,-1573 982,-1966z"/> <path class="fil24" d="M9350 10195c-76,328 -793,1592 -982,1965 54,-505 730,-1573 982,-1965z"/> <path class="fil22" d="M12757 8808c-58,331 -710,1622 -880,2002 29,-506 650,-1600 880,-2002z"/> <path class="fil24" d="M9539 10060c-59,331 -711,1622 -880,2002 28,-506 649,-1600 880,-2002z"/> <path class="fil23" d="M13065 8807c-76,329 -793,1593 -982,1966 54,-505 730,-1573 982,-1966z"/> <path class="fil24" d="M9865 10015c-75,328 -793,1593 -982,1965 55,-504 731,-1573 982,-1965z"/> <path class="fil22" d="M10673 9619c-59,331 -710,1622 -880,2002 28,-507 649,-1601 880,-2002z"/> <path class="fil22" d="M10941 9535c-76,329 -793,1593 -982,1966 54,-505 730,-1573 982,-1966z"/> <path class="fil22" d="M14718 11578c-307,-200 -1804,-719 -2229,-884 425,343 1743,739 2229,884z"/> <path class="fil22" d="M11424 12668c-306,-200 -1804,-717 -2229,-883 426,343 1743,739 2229,883z"/> <path class="fil22" d="M11633 12459c-316,-188 -1839,-646 -2271,-795 442,326 1779,670 2271,795z"/> <path class="fil22" d="M12585 12284c-307,-200 -1804,-718 -2229,-883 425,342 1743,739 2229,883z"/> <path class="fil22" d="M9358 13433c-307,-200 -1805,-718 -2230,-884 426,343 1744,740 2230,884z"/> <path class="fil25" d="M12833 12158c-317,-188 -1839,-646 -2273,-795 443,326 1780,670 2273,795z"/> <path class="fil26" d="M9572 13298c-317,-188 -1840,-646 -2272,-795 443,326 1779,670 2272,795z"/> <path class="fil25" d="M13118 12108c-307,-201 -1804,-719 -2229,-884 425,343 1743,739 2229,884z"/> <path class="fil22" d="M9986 13311c-307,-200 -1805,-718 -2230,-884 426,343 1743,740 2230,884z"/> <path class="fil25" d="M13357 11960c-317,-187 -1840,-646 -2273,-794 443,325 1780,669 2273,794z"/> <path class="fil22" d="M10062 13051c-316,-188 -1839,-646 -2272,-795 443,326 1780,671 2272,795z"/> <path class="fil22" d="M13652 11931c-307,-200 -1805,-718 -2230,-884 426,343 1743,740 2230,884z"/> <path class="fil22" d="M10357 13022c-306,-200 -1804,-718 -2229,-884 426,343 1744,739 2229,884z"/> <path class="fil22" d="M13880 11763c-317,-188 -1839,-646 -2272,-795 443,326 1779,670 2272,795z"/> <path class="fil22" d="M10586 12854c-316,-188 -1839,-647 -2272,-795 442,325 1779,670 2272,795z"/> <path class="fil22" d="M14185 11754c-307,-200 -1804,-718 -2229,-883 425,342 1743,739 2229,883z"/> <path class="fil22" d="M10891 12845c-307,-200 -1805,-718 -2230,-884 426,343 1744,740 2230,884z"/> <path class="fil22" d="M14404 11565c-317,-187 -1839,-646 -2273,-794 443,326 1780,670 2273,794z"/> <path class="fil22" d="M11110 12657c-316,-188 -1840,-647 -2272,-795 442,325 1779,670 2272,795z"/> <path class="fil22" d="M12052 12461c-307,-200 -1805,-719 -2230,-884 426,343 1744,740 2230,884z"/> <path class="fil22" d="M12309 12356c-317,-189 -1839,-647 -2272,-795 442,325 1779,670 2272,795z"/> <polygon class="fil34" points="13274,10632 12864,10514 10864,11043 9596,11536 8282,11937 7483,12469 6258,12585 6361,12822 7635,12770 8343,12190 10119,11582 11193,11165 12725,10735 "/> </g> <g> <path class="fil22" d="M29513 15559c-167,-301 -1224,-1365 -1514,-1684 197,476 1159,1360 1514,1684z"/> <path class="fil22" d="M23389 11766c-240,262 -1540,1094 -1904,1348 314,-426 1475,-1101 1904,-1348z"/> <path class="fil22" d="M23604 11896c-252,252 -1594,1032 -1970,1271 334,-412 1529,-1041 1970,-1271z"/> <path class="fil22" d="M22926 14745c-152,-308 -1154,-1414 -1427,-1744 173,484 1088,1405 1427,1744z"/> <path class="fil22" d="M23208 14766c-167,-301 -1224,-1366 -1514,-1685 198,477 1159,1361 1514,1685z"/> <path class="fil23" d="M29609 12523c-240,261 -1540,1094 -1904,1348 313,-426 1474,-1101 1904,-1348z"/> <path class="fil24" d="M26159 12116c-239,261 -1540,1094 -1904,1348 314,-426 1475,-1101 1904,-1348z"/> <path class="fil23" d="M29860 12648c-253,251 -1595,1032 -1971,1271 335,-413 1530,-1041 1971,-1271z"/> <path class="fil24" d="M26494 12222c-253,252 -1595,1032 -1971,1271 335,-412 1529,-1041 1971,-1271z"/> <path class="fil22" d="M27393 12232c-239,261 -1540,1093 -1904,1347 313,-425 1475,-1101 1904,-1347z"/> <path class="fil22" d="M23892 11904c-240,261 -1540,1094 -1904,1348 313,-426 1475,-1101 1904,-1348z"/> <path class="fil22" d="M27669 12299c-253,252 -1594,1032 -1971,1271 335,-413 1529,-1042 1971,-1271z"/> <path class="fil22" d="M24168 11971c-252,252 -1595,1032 -1970,1272 334,-413 1529,-1042 1970,-1272z"/> <path class="fil22" d="M27960 12284c-240,262 -1540,1095 -1904,1348 313,-425 1474,-1100 1904,-1348z"/> <path class="fil24" d="M24459 11957c-240,261 -1540,1093 -1904,1348 313,-426 1475,-1101 1904,-1348z"/> <path class="fil22" d="M28233 12374c-253,252 -1595,1032 -1971,1272 335,-413 1529,-1042 1971,-1272z"/> <path class="fil24" d="M24731 12047c-252,252 -1594,1032 -1970,1271 334,-413 1529,-1042 1970,-1271z"/> <path class="fil22" d="M28526 12337c-239,262 -1540,1094 -1903,1349 314,-426 1474,-1102 1903,-1349z"/> <path class="fil24" d="M25026 12010c-240,262 -1540,1094 -1904,1348 313,-426 1474,-1101 1904,-1348z"/> <path class="fil22" d="M28796 12449c-252,252 -1594,1032 -1971,1272 335,-413 1530,-1042 1971,-1272z"/> <path class="fil24" d="M25352 12097c-253,251 -1595,1032 -1971,1272 335,-414 1529,-1042 1971,-1272z"/> <path class="fil22" d="M29093 12391c-239,261 -1540,1093 -1903,1348 313,-426 1474,-1102 1903,-1348z"/> <path class="fil24" d="M25592 12063c-239,262 -1540,1094 -1903,1348 313,-426 1474,-1101 1903,-1348z"/> <path class="fil23" d="M29360 12525c-253,251 -1595,1032 -1971,1271 335,-413 1529,-1041 1971,-1271z"/> <path class="fil24" d="M25901 12168c-253,251 -1595,1031 -1971,1271 335,-413 1529,-1042 1971,-1271z"/> <path class="fil22" d="M26826 12179c-239,261 -1540,1093 -1904,1347 314,-426 1475,-1101 1904,-1347z"/> <path class="fil22" d="M27105 12223c-252,252 -1594,1032 -1970,1272 335,-413 1529,-1042 1970,-1272z"/> <path class="fil22" d="M29212 15649c-151,-307 -1153,-1413 -1426,-1743 173,484 1088,1406 1426,1743z"/> <path class="fil22" d="M25738 15149c-151,-307 -1153,-1413 -1427,-1742 173,483 1088,1404 1427,1742z"/> <path class="fil22" d="M26039 15060c-167,-302 -1225,-1367 -1514,-1685 197,476 1158,1361 1514,1685z"/> <path class="fil22" d="M26962 15325c-151,-307 -1153,-1413 -1426,-1743 173,484 1087,1406 1426,1743z"/> <path class="fil22" d="M23513 14905c-152,-308 -1153,-1413 -1427,-1743 173,484 1088,1405 1427,1743z"/> <path class="fil25" d="M27249 15325c-167,-302 -1225,-1366 -1514,-1685 197,476 1158,1361 1514,1685z"/> <path class="fil26" d="M23775 14882c-167,-302 -1224,-1366 -1514,-1685 197,477 1159,1361 1514,1685z"/> <path class="fil25" d="M27525 15406c-152,-307 -1154,-1413 -1427,-1742 173,483 1088,1404 1427,1742z"/> <path class="fil22" d="M24126 15075c-152,-308 -1154,-1414 -1427,-1743 173,483 1088,1405 1427,1743z"/> <path class="fil25" d="M27815 15384c-167,-302 -1224,-1367 -1515,-1686 198,477 1159,1361 1515,1686z"/> <path class="fil22" d="M24341 14883c-168,-301 -1225,-1366 -1515,-1684 198,476 1159,1360 1515,1684z"/> <path class="fil22" d="M28088 15487c-152,-307 -1154,-1413 -1427,-1743 172,484 1088,1406 1427,1743z"/> <path class="fil22" d="M24613 14987c-152,-307 -1153,-1413 -1427,-1742 173,483 1088,1404 1427,1742z"/> <path class="fil22" d="M28381 15442c-167,-301 -1224,-1366 -1514,-1685 197,477 1159,1361 1514,1685z"/> <path class="fil22" d="M24907 14942c-167,-301 -1225,-1366 -1515,-1684 198,475 1159,1360 1515,1684z"/> <path class="fil22" d="M28650 15568c-151,-307 -1153,-1413 -1427,-1743 173,484 1088,1405 1427,1743z"/> <path class="fil22" d="M25176 15068c-152,-308 -1154,-1413 -1427,-1743 173,484 1088,1405 1427,1743z"/> <path class="fil22" d="M28948 15501c-168,-302 -1225,-1366 -1515,-1685 197,476 1158,1360 1515,1685z"/> <path class="fil22" d="M25473 15001c-168,-301 -1225,-1367 -1515,-1685 198,476 1159,1361 1515,1685z"/> <path class="fil22" d="M26400 15244c-151,-307 -1153,-1413 -1427,-1742 173,483 1088,1404 1427,1742z"/> <path class="fil22" d="M26683 15266c-167,-301 -1225,-1366 -1515,-1685 198,476 1159,1361 1515,1685z"/> <polygon class="fil35" points="28501,14197 28213,13915 26180,13496 24800,13367 23434,13138 22439,13248 21312,12812 21266,13062 22399,13575 23342,13383 25227,13636 26395,13746 27967,14045 "/> <path class="fil22" d="M31218 11368c-317,-188 -1840,-646 -2273,-795 443,326 1779,670 2273,795z"/> <path class="fil22" d="M23751 10769c-58,331 -710,1623 -880,2002 28,-506 649,-1600 880,-2002z"/> <path class="fil22" d="M24011 10787c-75,329 -792,1593 -981,1965 54,-504 730,-1573 981,-1965z"/> <path class="fil22" d="M25047 13551c-306,-200 -1804,-717 -2229,-883 426,343 1743,739 2229,883z"/> <path class="fil22" d="M25305 13446c-317,-188 -1840,-646 -2272,-795 442,326 1779,670 2272,795z"/> <path class="fil23" d="M29569 8696c-59,332 -710,1623 -881,2002 29,-505 650,-1599 881,-2002z"/> <path class="fil24" d="M26349 9857c-58,331 -710,1622 -880,2002 29,-506 650,-1600 880,-2002z"/> <path class="fil23" d="M29858 8695c-75,328 -793,1593 -982,1965 54,-505 730,-1573 982,-1965z"/> <path class="fil24" d="M26700 9802c-75,329 -793,1593 -982,1966 54,-505 731,-1573 982,-1966z"/> <path class="fil22" d="M27484 9416c-58,331 -710,1622 -880,2002 28,-506 649,-1600 880,-2002z"/> <path class="fil22" d="M24265 10668c-58,331 -710,1622 -880,2002 28,-507 649,-1601 880,-2002z"/> <path class="fil22" d="M27762 9353c-76,329 -793,1593 -982,1966 54,-505 730,-1573 982,-1966z"/> <path class="fil22" d="M24543 10605c-75,329 -793,1593 -982,1965 54,-504 730,-1573 982,-1965z"/> <path class="fil22" d="M28005 9213c-58,332 -710,1623 -880,2002 28,-506 649,-1600 880,-2002z"/> <path class="fil24" d="M24786 10465c-58,331 -710,1623 -880,2002 29,-506 649,-1600 880,-2002z"/> <path class="fil22" d="M28292 9171c-75,329 -792,1593 -982,1965 55,-504 731,-1573 982,-1965z"/> <path class="fil24" d="M25074 10423c-75,329 -793,1593 -982,1965 54,-504 731,-1573 982,-1965z"/> <path class="fil22" d="M28526 9010c-58,332 -710,1623 -880,2003 29,-506 650,-1600 880,-2003z"/> <path class="fil24" d="M25307 10262c-58,332 -710,1623 -880,2002 29,-506 649,-1600 880,-2002z"/> <path class="fil22" d="M28823 8989c-75,329 -792,1593 -982,1966 55,-505 731,-1573 982,-1966z"/> <path class="fil24" d="M25639 10195c-75,328 -792,1592 -981,1965 54,-505 730,-1573 981,-1965z"/> <path class="fil22" d="M29047 8808c-58,331 -710,1622 -880,2002 29,-506 650,-1600 880,-2002z"/> <path class="fil24" d="M25829 10060c-59,331 -711,1622 -881,2002 29,-506 650,-1600 881,-2002z"/> <path class="fil23" d="M29355 8807c-76,329 -793,1593 -982,1966 54,-505 730,-1573 982,-1966z"/> <path class="fil24" d="M26155 10015c-75,328 -793,1593 -982,1965 55,-504 731,-1573 982,-1965z"/> <path class="fil22" d="M26963 9619c-59,331 -710,1622 -881,2002 29,-507 650,-1601 881,-2002z"/> <path class="fil22" d="M27230 9535c-75,329 -792,1593 -981,1966 54,-505 730,-1573 981,-1966z"/> <path class="fil22" d="M31008 11578c-307,-200 -1805,-719 -2229,-884 425,343 1743,739 2229,884z"/> <path class="fil22" d="M27714 12668c-306,-200 -1804,-717 -2229,-883 425,343 1743,739 2229,883z"/> <path class="fil22" d="M27923 12459c-316,-188 -1839,-646 -2271,-795 442,326 1779,670 2271,795z"/> <path class="fil22" d="M28875 12284c-307,-200 -1804,-718 -2230,-883 426,342 1744,739 2230,883z"/> <path class="fil22" d="M25647 13433c-306,-200 -1804,-718 -2229,-884 426,343 1744,740 2229,884z"/> <path class="fil25" d="M29123 12158c-317,-188 -1839,-646 -2273,-795 443,326 1779,670 2273,795z"/> <path class="fil26" d="M25862 13298c-317,-188 -1840,-646 -2272,-795 443,326 1779,670 2272,795z"/> <path class="fil25" d="M29408 12108c-307,-201 -1804,-719 -2229,-884 425,343 1743,739 2229,884z"/> <path class="fil22" d="M26275 13311c-306,-200 -1804,-718 -2229,-884 426,343 1743,740 2229,884z"/> <path class="fil25" d="M29647 11960c-317,-187 -1840,-646 -2273,-794 443,325 1779,669 2273,794z"/> <path class="fil22" d="M26352 13051c-316,-188 -1839,-646 -2272,-795 443,326 1780,671 2272,795z"/> <path class="fil22" d="M29942 11931c-307,-200 -1805,-718 -2230,-884 425,343 1743,740 2230,884z"/> <path class="fil22" d="M26647 13022c-306,-200 -1804,-718 -2229,-884 426,343 1743,739 2229,884z"/> <path class="fil22" d="M30170 11763c-317,-188 -1839,-646 -2272,-795 443,326 1779,670 2272,795z"/> <path class="fil22" d="M26876 12854c-317,-188 -1839,-647 -2272,-795 442,325 1779,670 2272,795z"/> <path class="fil22" d="M30475 11754c-307,-200 -1804,-718 -2229,-883 425,342 1742,739 2229,883z"/> <path class="fil22" d="M27181 12845c-307,-200 -1805,-718 -2230,-884 426,343 1744,740 2230,884z"/> <path class="fil22" d="M30694 11565c-317,-187 -1839,-646 -2273,-794 443,326 1780,670 2273,794z"/> <path class="fil22" d="M27400 12657c-317,-188 -1840,-647 -2272,-795 442,325 1779,670 2272,795z"/> <path class="fil22" d="M28342 12461c-307,-200 -1805,-719 -2230,-884 426,343 1744,740 2230,884z"/> <path class="fil22" d="M28599 12356c-317,-189 -1839,-647 -2272,-795 442,325 1779,670 2272,795z"/> <polygon class="fil36" points="29564,10632 29154,10514 27154,11043 25886,11536 24572,11937 23773,12469 22548,12585 22651,12822 23925,12770 24633,12190 26409,11582 27482,11165 29015,10735 "/> </g> </g> </g> </g> </svg>