<?xml version='1.0' encoding='utf-8'?>
<svg xmlns:xlink="http://www.w3.org/1999/xlink" xmlns="http://www.w3.org/2000/svg" width="311.727mm" height="175.931mm" version="1.1" style="shape-rendering:geometricPrecision; text-rendering:geometricPrecision; image-rendering:optimizeQuality; fill-rule:evenodd; clip-rule:evenodd" viewBox="0 0 31218 17618"> <defs> <style type="text/css">  .fil20 {fill:#009846} .fil23 {fill:#06803B} .fil24 {fill:#09803D} .fil22 {fill:#0E8544} .fil21 {fill:#217549} .fil15 {fill:#2B2A29} .fil8 {fill:#898989} .fil2 {fill:#CDA607} .fil14 {fill:#DFB408} .fil3 {fill:#FECC00} .fil26 {fill:url(#id0)} .fil28 {fill:url(#id1)} .fil19 {fill:url(#id2)} .fil16 {fill:url(#id3)} .fil9 {fill:url(#id4)} .fil11 {fill:url(#id5)} .fil17 {fill:url(#id6)} .fil12 {fill:url(#id7)} .fil1 {fill:url(#id8)} .fil4 {fill:url(#id9)} .fil5 {fill:url(#id10)} .fil6 {fill:url(#id11)} .fil7 {fill:url(#id12)} .fil10 {fill:url(#id13)} .fil30 {fill:url(#id14)} .fil0 {fill:url(#id15)} .fil32 {fill:url(#id16)} .fil34 {fill:url(#id17)} .fil31 {fill:url(#id18)} .fil33 {fill:url(#id19)} .fil25 {fill:url(#id20)} .fil27 {fill:url(#id21)} .fil29 {fill:url(#id22)} .fil18 {fill:url(#id23)} .fil13 {fill:url(#id24)}  </style> <linearGradient id="id0" gradientUnits="userSpaceOnUse" x1="6417.98" y1="13831.8" x2="998.586" y2="10016.5"> <stop offset="0" style="stop-color:#AF9778"/> <stop offset="0.529412" style="stop-color:#874C20"/> <stop offset="1" style="stop-color:#6E411D"/> </linearGradient> <linearGradient id="id1" gradientUnits="userSpaceOnUse" xlink:href="#id0" x1="22426.9" y1="13831.8" x2="17007.5" y2="10016.5"> </linearGradient> <linearGradient id="id2" gradientUnits="userSpaceOnUse" x1="10246.7" y1="6791.32" x2="13451.3" y2="6791.32"> <stop offset="0" style="stop-color:#E73A3F"/> <stop offset="0.521569" style="stop-color:#B32322"/> <stop offset="1" style="stop-color:#8E241F"/> </linearGradient> <linearGradient id="id3" gradientUnits="userSpaceOnUse" xlink:href="#id2" x1="3007.25" y1="7451.77" x2="6211.86" y2="7451.77"> </linearGradient> <linearGradient id="id4" gradientUnits="userSpaceOnUse" x1="24724.5" y1="6152.4" x2="27929.1" y2="6152.4"> <stop offset="0" style="stop-color:#E73A3F"/> <stop offset="0.521569" style="stop-color:#B32322"/> <stop offset="1" style="stop-color:#8E241F"/> </linearGradient> <linearGradient id="id5" gradientUnits="userSpaceOnUse" xlink:href="#id4" x1="17486.1" y1="6152.4" x2="20690.7" y2="6152.4"> </linearGradient> <linearGradient id="id6" gradientUnits="userSpaceOnUse" xlink:href="#id4" x1="10246.7" y1="6322.14" x2="13451.3" y2="6322.14"> </linearGradient> <linearGradient id="id7" gradientUnits="userSpaceOnUse" xlink:href="#id4" x1="3007.25" y1="6977.08" x2="6211.86" y2="6977.08"> </linearGradient> <linearGradient id="id8" gradientUnits="userSpaceOnUse" x1="23052.1" y1="11068" x2="29602.5" y2="11068"> <stop offset="0" style="stop-color:#623620"/> <stop offset="0.121569" style="stop-color:#CC9E20"/> <stop offset="0.239216" style="stop-color:white"/> <stop offset="0.521569" style="stop-color:#CF9A30"/> <stop offset="1" style="stop-color:#662D29"/> </linearGradient> <linearGradient id="id9" gradientUnits="userSpaceOnUse" xlink:href="#id8" x1="15812.7" y1="11068" x2="22363.1" y2="11068"> </linearGradient> <linearGradient id="id10" gradientUnits="userSpaceOnUse" xlink:href="#id8" x1="8573.26" y1="11068" x2="15123.7" y2="11068"> </linearGradient> <linearGradient id="id11" gradientUnits="userSpaceOnUse" xlink:href="#id8" x1="1334.85" y1="11068" x2="7885.27" y2="11068"> </linearGradient> <linearGradient id="id12" gradientUnits="userSpaceOnUse" x1="24724.5" y1="5656.18" x2="27929.1" y2="5656.18"> <stop offset="0" style="stop-color:#E73A3F"/> <stop offset="0.180392" style="stop-color:#E73A3F"/> <stop offset="0.321569" style="stop-color:#BF4717"/> <stop offset="0.74902" style="stop-color:#91261F"/> <stop offset="1" style="stop-color:#8E241F"/> </linearGradient> <linearGradient id="id13" gradientUnits="userSpaceOnUse" xlink:href="#id12" x1="17486.1" y1="5656.18" x2="20690.7" y2="5656.18"> </linearGradient> <linearGradient id="id14" gradientUnits="userSpaceOnUse" xlink:href="#id0" x1="17672" y1="11940" x2="11814" y2="15756.7"> </linearGradient> <linearGradient id="id15" gradientUnits="userSpaceOnUse" xlink:href="#id8" x1="15558.5" y1="10498.6" x2="15558.5" y2="12829"> </linearGradient> <linearGradient id="id16" gradientUnits="userSpaceOnUse" xlink:href="#id0" x1="12150.9" y1="14398.9" x2="7326.97" y2="9330.12"> </linearGradient> <linearGradient id="id17" gradientUnits="userSpaceOnUse" xlink:href="#id0" x1="28440.8" y1="14398.9" x2="23616.9" y2="9330.12"> </linearGradient> <linearGradient id="id18" gradientUnits="userSpaceOnUse" xlink:href="#id0" x1="8927.13" y1="15587.5" x2="8221.99" y2="12028.6"> </linearGradient> <linearGradient id="id19" gradientUnits="userSpaceOnUse" xlink:href="#id0" x1="25217" y1="15587.5" x2="24511.9" y2="12028.6"> </linearGradient> <linearGradient id="id20" gradientUnits="userSpaceOnUse" xlink:href="#id0" x1="3989.36" y1="15716.1" x2="2460.2" y2="12415.6"> </linearGradient> <linearGradient id="id21" gradientUnits="userSpaceOnUse" xlink:href="#id0" x1="19998.3" y1="15716.1" x2="18469.2" y2="12415.6"> </linearGradient> <linearGradient id="id22" gradientUnits="userSpaceOnUse" xlink:href="#id0" x1="15060" y1="10029.8" x2="13381.1" y2="13383.5"> </linearGradient> <radialGradient id="id23" gradientUnits="objectBoundingBox" cx="50%" cy="50%" r="50%" fx="50%" fy="50%"> <stop offset="0" style="stop-color:#EBECEC"/> <stop offset="1" style="stop-color:#F5B2B6"/> <stop offset="1" style="stop-color:#F5B2B6"/> </radialGradient> <radialGradient id="id24" gradientUnits="objectBoundingBox" xlink:href="#id23" cx="50%" cy="50%" r="50%" fx="50%" fy="50%"> </radialGradient> </defs> <g id="Ebene_x0020_1"> <metadata id="CorelCorpID_0Corel-Layer"/> <g id="_856178544"> <path class="fil0" d="M30458 12829l-29743 0c-505,-747 -523,-1523 0,-2330 9914,0 19828,0 29743,0 336,764 467,1531 0,2330z"/> <path class="fil1" d="M23052 11160c12,403 1474,728 3275,728 1801,0 3263,-325 3275,-728l1 0 0 -912 -6551 0 0 912z"/> <ellipse class="fil2" cx="26327" cy="10265" rx="3275" ry="733"/> <ellipse class="fil3" cx="26327" cy="10265" rx="2980" ry="667"/> <path class="fil4" d="M15813 11160c12,403 1474,728 3274,728 1802,0 3264,-325 3275,-728l1 0 0 -912 -6550 0 0 912z"/> <ellipse class="fil2" cx="19087" cy="10265" rx="3275" ry="733"/> <ellipse class="fil3" cx="19087" cy="10265" rx="2980" ry="667"/> <path class="fil5" d="M8573 11160c12,403 1474,728 3275,728 1802,0 3264,-325 3275,-728l1 0 0 -912 -6551 0 0 912z"/> <ellipse class="fil2" cx="11848" cy="10265" rx="3275" ry="733"/> <ellipse class="fil3" cx="11848" cy="10265" rx="2980" ry="667"/> <path class="fil6" d="M1335 11160c12,403 1474,728 3275,728 1801,0 3263,-325 3274,-728l1 0 0 -912 -6550 0 0 912z"/> <ellipse class="fil2" cx="4610" cy="10265" rx="3275" ry="733"/> <ellipse class="fil3" cx="4610" cy="10265" rx="2980" ry="667"/> <path class="fil7" d="M27929 1587l-1563 -992 -1642 992 0 8566c0,149 19,173 132,208 1024,317 2005,356 2997,-20 75,-29 74,-125 74,-210 0,-2869 2,-5676 2,-8544z"/> <path class="fil8" d="M26045 7c0,-2 361,-75 380,298 6,120 6,363 -46,350 -16,-6 -30,-4 -44,0 -46,13 33,-211 27,-319 -19,-365 -311,-212 -317,-329z"/> <path class="fil9" d="M27929 1587c-1067,228 -2136,228 -3205,0l0 8566c0,149 19,173 132,208 1024,317 2005,356 2997,-20 75,-29 74,-125 74,-210 0,-2869 2,-5676 2,-8544z"/> <path class="fil10" d="M20691 1587l-1565 -992 -1640 992 0 8566c0,149 17,173 130,208 1025,317 2005,356 2999,-20 74,-29 73,-125 73,-210 0,-2869 3,-5676 3,-8544z"/> <path class="fil8" d="M18806 7c0,-2 361,-75 380,298 6,120 6,363 -47,350 -15,-6 -30,-4 -44,0 -46,13 33,-211 27,-319 -19,-365 -310,-212 -316,-329z"/> <path class="fil11" d="M20691 1587c-1069,228 -2137,228 -3205,0l0 8566c0,149 17,173 130,208 1025,317 2005,356 2999,-20 74,-29 73,-125 73,-210 0,-2869 3,-5676 3,-8544z"/> <path class="fil12" d="M6212 4187c-14,-98 -174,-162 -275,-183 -164,-33 -355,53 -512,32 -217,-28 -408,-122 -612,-129 -296,-10 -753,-8 -1029,22 -192,20 -323,117 -507,153 -125,25 -268,40 -270,105l0 5871 3205 0 0 -5871z"/> <path class="fil13" d="M6212 4330c-33,-8 -63,-27 -90,-50 -2,-1 -3,-2 -4,-3 -59,-50 -113,-115 -181,-129 -164,-33 -355,53 -512,31 -217,-28 -408,-122 -612,-128 -296,-10 -753,-8 -1029,22 -192,20 -323,116 -507,153 -125,25 -150,74 -270,104l0 637 3205 0 0 -637z"/> <path class="fil3" d="M3936 3574c145,870 1191,782 1314,0 106,-668 -438,-1281 -657,-1921 -220,640 -770,1254 -657,1921z"/> <path class="fil14" d="M4077 3819c114,539 934,485 1031,0 83,-416 -231,-878 -515,-1194 -285,341 -603,779 -516,1194z"/> <path class="fil8" d="M4251 3744c0,-3 361,-76 380,298 5,121 -19,244 -45,349 -8,29 -45,34 -47,0 -6,-107 34,-211 27,-318 -18,-366 -310,-211 -315,-329z"/> <path class="fil15" d="M4623 4202c-8,66 -23,131 -37,189 -8,29 -45,34 -47,0 -3,-64 8,-126 18,-188 23,1 44,1 66,-1z"/> <path class="fil16" d="M6212 4187c-28,12 -55,26 -81,42 -16,10 5,82 -11,92 -15,10 -65,-43 -78,-33 -73,50 -144,100 -224,124 -78,24 -185,-28 -263,-10 -165,39 -300,165 -465,181 -165,17 -360,-74 -525,-78 -220,-6 -455,38 -676,-2 -175,-32 -334,-141 -509,-193 -124,-36 -250,-77 -373,-123l0 5966c0,149 17,174 129,209 1027,316 2005,354 3000,-21 74,-28 73,-125 73,-210 0,-2870 3,-3076 3,-5944z"/> <path class="fil17" d="M13451 2866c-14,-97 -174,-162 -274,-182 -165,-34 -356,52 -513,32 -216,-29 -407,-123 -613,-129 -294,-10 -752,-8 -1027,21 -192,21 -324,118 -508,154 -124,24 -267,40 -269,104l0 7202 3204 0 0 -7202z"/> <path class="fil18" d="M13451 3009c-33,-7 -63,-27 -90,-50 -2,-1 -3,-1 -4,-2 -59,-50 -114,-116 -180,-130 -165,-33 -356,53 -513,32 -216,-29 -407,-123 -613,-129 -294,-9 -752,-7 -1027,22 -192,21 -324,116 -508,154 -124,24 -149,73 -269,103l0 637 3204 0 0 -637z"/> <path class="fil3" d="M11175 2254c144,871 1192,782 1315,0 105,-669 -440,-1281 -658,-1920 -219,639 -769,1252 -657,1920z"/> <path class="fil14" d="M11315 2499c115,539 936,485 1033,0 83,-416 -232,-878 -516,-1194 -285,340 -604,779 -517,1194z"/> <path class="fil8" d="M11490 2424c0,-3 361,-76 379,298 6,120 -18,243 -45,348 -7,30 -44,35 -46,0 -5,-107 34,-210 28,-318 -18,-366 -311,-210 -316,-328z"/> <path class="fil15" d="M11862 2881c-8,67 -23,131 -38,189 -7,30 -44,35 -46,0 -3,-64 9,-125 19,-188 21,1 43,1 65,-1z"/> <path class="fil19" d="M13451 2866c-29,12 -55,27 -81,43 -16,9 5,82 -11,92 -15,9 -65,-43 -78,-34 -73,50 -143,100 -224,125 -77,24 -186,-29 -263,-10 -165,40 -299,164 -465,181 -165,16 -360,-75 -524,-78 -220,-6 -456,38 -677,-2 -175,-32 -334,-141 -509,-193 -125,-36 -249,-78 -372,-124l0 7287c0,149 16,174 129,209 1026,316 2005,354 2999,-21 74,-28 73,-125 73,-210 0,-2870 3,-4396 3,-7265z"/> <g> <g> <path class="fil20" d="M7660 14863c-219,-253 -1391,-1041 -1719,-1283 290,415 1334,1051 1719,1283z"/> <path class="fil20" d="M1489 12589c-135,308 -1021,1407 -1264,1735 155,-483 965,-1399 1264,-1735z"/> <path class="fil20" d="M1706 12666c-149,301 -1084,1359 -1341,1675 177,-474 1026,-1353 1341,-1675z"/> <path class="fil20" d="M1868 15572c-209,-263 -1344,-1104 -1660,-1360 271,428 1285,1110 1660,1360z"/> <path class="fil20" d="M2113 15528c-220,-253 -1391,-1042 -1720,-1283 291,415 1334,1051 1720,1283z"/> <path class="fil21" d="M6955 11909c-136,306 -1022,1405 -1264,1734 155,-483 964,-1399 1264,-1734z"/> <path class="fil22" d="M3927 12299c-135,306 -1022,1406 -1264,1734 155,-483 964,-1399 1264,-1734z"/> <path class="fil21" d="M7200 11972c-149,301 -1084,1359 -1341,1676 177,-475 1027,-1353 1341,-1676z"/> <path class="fil22" d="M4238 12325c-149,301 -1084,1359 -1341,1676 177,-475 1026,-1354 1341,-1676z"/> <path class="fil20" d="M5002 12130c-135,307 -1022,1406 -1264,1734 155,-482 964,-1398 1264,-1734z"/> <path class="fil20" d="M1951 12609c-135,306 -1021,1405 -1264,1734 155,-483 964,-1399 1264,-1734z"/> <path class="fil20" d="M5254 12132c-149,301 -1084,1359 -1341,1676 177,-475 1026,-1353 1341,-1676z"/> <path class="fil20" d="M2203 12611c-149,301 -1085,1359 -1341,1675 177,-474 1026,-1353 1341,-1675z"/> <path class="fil20" d="M5496 12053c-135,307 -1022,1406 -1264,1733 155,-482 964,-1397 1264,-1733z"/> <path class="fil22" d="M2445 12531c-135,307 -1022,1406 -1264,1734 155,-482 964,-1398 1264,-1734z"/> <path class="fil20" d="M5751 12077c-150,301 -1085,1359 -1341,1676 177,-475 1026,-1354 1341,-1676z"/> <path class="fil22" d="M2699 12556c-149,300 -1083,1358 -1340,1675 176,-475 1026,-1353 1340,-1675z"/> <path class="fil20" d="M5990 11975c-135,307 -1022,1406 -1264,1734 156,-482 964,-1398 1264,-1734z"/> <path class="fil22" d="M2939 12453c-135,308 -1022,1407 -1264,1735 155,-483 964,-1398 1264,-1735z"/> <path class="fil20" d="M6247 12022c-148,300 -1083,1359 -1340,1676 176,-476 1026,-1354 1340,-1676z"/> <path class="fil22" d="M3238 12464c-149,300 -1084,1358 -1340,1675 176,-475 1025,-1353 1340,-1675z"/> <path class="fil20" d="M6484 11898c-135,307 -1022,1406 -1264,1734 156,-482 964,-1398 1264,-1734z"/> <path class="fil22" d="M3433 12376c-135,307 -1022,1406 -1264,1734 155,-482 964,-1398 1264,-1734z"/> <path class="fil21" d="M6744 11967c-148,300 -1083,1359 -1340,1676 176,-476 1026,-1354 1340,-1676z"/> <path class="fil22" d="M3721 12407c-149,301 -1084,1359 -1340,1675 176,-474 1026,-1353 1340,-1675z"/> <path class="fil20" d="M4508 12208c-135,306 -1022,1406 -1264,1734 155,-483 964,-1399 1264,-1734z"/> <path class="fil20" d="M4756 12187c-148,301 -1083,1359 -1340,1676 177,-475 1026,-1353 1340,-1676z"/> <path class="fil20" d="M7428 15018c-208,-262 -1342,-1103 -1660,-1359 272,427 1286,1110 1660,1359z"/> <path class="fil20" d="M4356 15324c-209,-263 -1344,-1103 -1660,-1359 271,427 1285,1110 1660,1359z"/> <path class="fil20" d="M4587 15169c-220,-253 -1391,-1042 -1719,-1284 290,416 1334,1052 1719,1284z"/> <path class="fil20" d="M5438 15216c-208,-262 -1343,-1103 -1660,-1359 272,428 1286,1110 1660,1359z"/> <path class="fil20" d="M2407 15593c-209,-263 -1343,-1103 -1660,-1359 271,427 1285,1110 1660,1359z"/> <path class="fil23" d="M5681 15151c-220,-254 -1391,-1042 -1719,-1284 290,415 1333,1051 1719,1284z"/> <path class="fil24" d="M2623 15512c-220,-254 -1391,-1042 -1719,-1284 290,415 1334,1051 1719,1284z"/> <path class="fil23" d="M5936 15167c-208,-263 -1343,-1103 -1660,-1360 272,428 1285,1110 1660,1360z"/> <path class="fil20" d="M2970 15618c-208,-263 -1343,-1103 -1660,-1360 272,428 1285,1110 1660,1360z"/> <path class="fil23" d="M6176 15079c-220,-253 -1391,-1042 -1720,-1284 291,415 1334,1052 1720,1284z"/> <path class="fil20" d="M3103 15384c-220,-253 -1392,-1041 -1720,-1283 291,415 1334,1051 1720,1283z"/> <path class="fil20" d="M6434 15117c-209,-262 -1344,-1103 -1661,-1359 272,427 1286,1110 1661,1359z"/> <path class="fil20" d="M3360 15423c-208,-263 -1343,-1103 -1660,-1359 272,427 1286,1110 1660,1359z"/> <path class="fil20" d="M6671 15007c-220,-253 -1392,-1042 -1720,-1284 291,416 1334,1052 1720,1284z"/> <path class="fil20" d="M3597 15313c-219,-253 -1391,-1042 -1719,-1284 291,415 1334,1051 1719,1284z"/> <path class="fil20" d="M6931 15068c-208,-263 -1343,-1103 -1660,-1360 271,428 1285,1110 1660,1360z"/> <path class="fil20" d="M3858 15374c-208,-264 -1343,-1104 -1660,-1360 272,428 1285,1110 1660,1360z"/> <path class="fil20" d="M7166 14935c-220,-253 -1392,-1041 -1720,-1283 291,415 1334,1051 1720,1283z"/> <path class="fil20" d="M4092 15241c-220,-253 -1391,-1042 -1719,-1284 290,415 1334,1052 1719,1284z"/> <path class="fil20" d="M4940 15266c-207,-263 -1342,-1103 -1660,-1360 272,428 1286,1110 1660,1360z"/> <path class="fil20" d="M5186 15222c-220,-253 -1391,-1041 -1719,-1283 290,415 1334,1051 1719,1283z"/> <polygon class="fil25" points="6450,13777 6133,13570 4301,13627 3100,13815 1882,13904 1068,14237 0,14071 26,14323 1119,14561 1868,14162 3531,13979 4548,13819 5958,13752 "/> <path class="fil20" d="M8019 10428c-317,-110 -1726,-207 -2131,-252 459,214 1681,243 2131,252z"/> <path class="fil20" d="M1538 11544c36,334 -182,1729 -227,2134 -107,-496 135,-1693 227,-2134z"/> <path class="fil20" d="M1763 11502c22,335 -259,1719 -323,2122 -84,-500 212,-1686 323,-2122z"/> <path class="fil20" d="M3356 13937c-311,-123 -1714,-283 -2117,-347 449,234 1668,319 2117,347z"/> <path class="fil20" d="M3547 13777c-316,-109 -1725,-206 -2130,-252 459,214 1680,244 2130,252z"/> <path class="fil21" d="M5930 8222c37,333 -181,1728 -227,2133 -106,-495 136,-1693 227,-2133z"/> <path class="fil22" d="M3504 10074c36,333 -182,1728 -228,2133 -107,-495 136,-1693 228,-2133z"/> <path class="fil21" d="M6175 8154c21,335 -259,1719 -323,2121 -85,-499 212,-1685 323,-2121z"/> <path class="fil22" d="M3786 9941c22,334 -259,1719 -323,2121 -85,-500 212,-1685 323,-2121z"/> <path class="fil20" d="M4351 9390c36,333 -182,1728 -228,2133 -107,-495 136,-1692 228,-2133z"/> <path class="fil20" d="M1947 11330c37,333 -182,1728 -227,2133 -107,-495 136,-1693 227,-2133z"/> <path class="fil20" d="M4570 9266c20,335 -260,1719 -324,2121 -84,-499 212,-1685 324,-2121z"/> <path class="fil20" d="M2166 11206c22,334 -259,1718 -323,2121 -85,-499 212,-1685 323,-2121z"/> <path class="fil20" d="M4740 9076c36,333 -182,1728 -228,2133 -107,-495 136,-1692 228,-2133z"/> <path class="fil22" d="M2336 11016c37,333 -182,1728 -227,2133 -107,-495 136,-1693 227,-2133z"/> <path class="fil20" d="M4972 8970c21,335 -259,1719 -323,2121 -84,-499 212,-1685 323,-2121z"/> <path class="fil22" d="M2569 10910c22,335 -259,1718 -323,2121 -85,-500 212,-1685 323,-2121z"/> <path class="fil20" d="M5129 8761c36,334 -182,1729 -228,2135 -107,-496 136,-1694 228,-2135z"/> <path class="fil22" d="M2725 10701c37,334 -181,1729 -227,2134 -107,-495 136,-1693 227,-2134z"/> <path class="fil20" d="M5375 8674c21,334 -260,1718 -323,2121 -85,-500 212,-1685 323,-2121z"/> <path class="fil22" d="M2989 10561c22,334 -259,1718 -323,2121 -84,-500 212,-1685 323,-2121z"/> <path class="fil20" d="M5518 8448c36,333 -182,1728 -228,2134 -107,-496 136,-1694 228,-2134z"/> <path class="fil22" d="M3115 10387c36,334 -182,1729 -228,2134 -107,-495 136,-1693 228,-2134z"/> <path class="fil21" d="M5778 8377c21,335 -260,1719 -323,2122 -85,-500 212,-1686 323,-2122z"/> <path class="fil22" d="M3379 10270c22,335 -259,1719 -323,2121 -84,-499 213,-1685 323,-2121z"/> <path class="fil20" d="M3962 9704c36,333 -182,1728 -228,2133 -107,-495 136,-1693 228,-2133z"/> <path class="fil20" d="M4167 9563c21,334 -260,1718 -324,2121 -84,-500 212,-1685 324,-2121z"/> <path class="fil20" d="M7896 10678c-312,-124 -1715,-284 -2118,-347 449,234 1669,318 2118,347z"/> <path class="fil20" d="M5387 12479c-311,-123 -1714,-283 -2117,-347 449,234 1668,318 2117,347z"/> <path class="fil20" d="M5510 12229c-316,-109 -1725,-206 -2130,-252 459,214 1681,244 2130,252z"/> <path class="fil20" d="M6271 11844c-312,-123 -1714,-284 -2117,-347 449,235 1668,319 2117,347z"/> <path class="fil20" d="M3834 13687c-311,-124 -1714,-284 -2117,-348 449,235 1668,319 2117,348z"/> <path class="fil23" d="M6448 11666c-316,-109 -1725,-206 -2130,-252 459,214 1680,244 2130,252z"/> <path class="fil24" d="M3981 13508c-317,-110 -1726,-207 -2131,-252 460,214 1681,243 2131,252z"/> <path class="fil23" d="M6678 11553c-312,-124 -1715,-284 -2118,-348 449,235 1668,319 2118,348z"/> <path class="fil20" d="M4335 13426c-312,-123 -1715,-283 -2118,-347 450,234 1669,319 2118,347z"/> <path class="fil23" d="M6841 11356c-317,-109 -1726,-206 -2131,-251 459,214 1681,243 2131,251z"/> <path class="fil20" d="M4333 13158c-317,-109 -1726,-206 -2131,-252 459,214 1681,244 2131,252z"/> <path class="fil20" d="M7084 11261c-312,-123 -1715,-284 -2118,-347 449,234 1668,318 2118,347z"/> <path class="fil20" d="M4575 13062c-312,-123 -1715,-283 -2118,-347 450,235 1669,319 2118,347z"/> <path class="fil20" d="M7234 11047c-317,-110 -1726,-206 -2131,-252 459,214 1681,244 2131,252z"/> <path class="fil20" d="M4725 12848c-316,-109 -1726,-206 -2131,-252 460,214 1681,244 2131,252z"/> <path class="fil20" d="M7490 10969c-312,-123 -1715,-284 -2118,-347 449,235 1668,319 2118,347z"/> <path class="fil20" d="M4981 12771c-311,-124 -1714,-284 -2117,-348 449,235 1668,319 2117,348z"/> <path class="fil20" d="M7626 10737c-316,-109 -1725,-206 -2131,-251 460,214 1681,243 2131,251z"/> <path class="fil20" d="M5118 12539c-317,-110 -1726,-206 -2131,-252 459,214 1681,244 2131,252z"/> <path class="fil20" d="M5865 12136c-311,-124 -1714,-284 -2117,-347 449,234 1668,318 2117,347z"/> <path class="fil20" d="M6056 11976c-317,-110 -1726,-206 -2131,-252 459,214 1681,244 2131,252z"/> <polygon class="fil26" points="6428,10092 6050,10072 4492,11036 3545,11801 2536,12486 1997,13181 989,13572 1138,13777 2203,13437 2653,12717 4001,11726 4802,11079 5989,10316 "/> </g> <g> <path class="fil20" d="M23669 14863c-219,-253 -1391,-1041 -1719,-1283 290,415 1334,1051 1719,1283z"/> <path class="fil20" d="M17498 12589c-135,308 -1021,1407 -1264,1735 155,-483 965,-1399 1264,-1735z"/> <path class="fil20" d="M17714 12666c-148,301 -1083,1359 -1340,1675 177,-474 1026,-1353 1340,-1675z"/> <path class="fil20" d="M17877 15572c-209,-263 -1344,-1104 -1660,-1360 271,428 1285,1110 1660,1360z"/> <path class="fil20" d="M18122 15528c-220,-253 -1391,-1042 -1720,-1283 291,415 1334,1051 1720,1283z"/> <path class="fil21" d="M22964 11909c-136,306 -1022,1405 -1264,1734 155,-483 964,-1399 1264,-1734z"/> <path class="fil22" d="M19936 12299c-135,306 -1022,1406 -1264,1734 155,-483 964,-1399 1264,-1734z"/> <path class="fil21" d="M23209 11972c-149,301 -1084,1359 -1341,1676 177,-475 1027,-1353 1341,-1676z"/> <path class="fil22" d="M20247 12325c-149,301 -1084,1359 -1341,1676 177,-475 1026,-1354 1341,-1676z"/> <path class="fil20" d="M21011 12130c-135,307 -1022,1406 -1264,1734 155,-482 964,-1398 1264,-1734z"/> <path class="fil20" d="M17960 12609c-135,306 -1021,1405 -1264,1734 155,-483 964,-1399 1264,-1734z"/> <path class="fil20" d="M21262 12132c-148,301 -1083,1359 -1340,1676 177,-475 1026,-1353 1340,-1676z"/> <path class="fil20" d="M18212 12611c-149,301 -1085,1359 -1341,1675 177,-474 1026,-1353 1341,-1675z"/> <path class="fil20" d="M21505 12053c-135,307 -1022,1406 -1264,1733 155,-482 964,-1397 1264,-1733z"/> <path class="fil22" d="M18454 12531c-135,307 -1022,1406 -1264,1734 155,-482 964,-1398 1264,-1734z"/> <path class="fil20" d="M21760 12077c-150,301 -1085,1359 -1341,1676 177,-475 1026,-1354 1341,-1676z"/> <path class="fil22" d="M18708 12556c-149,300 -1083,1358 -1340,1675 176,-475 1026,-1353 1340,-1675z"/> <path class="fil20" d="M21999 11975c-135,307 -1022,1406 -1264,1734 156,-482 964,-1398 1264,-1734z"/> <path class="fil22" d="M18948 12453c-135,308 -1022,1407 -1264,1735 155,-483 964,-1398 1264,-1735z"/> <path class="fil20" d="M22256 12022c-149,300 -1083,1359 -1340,1676 176,-476 1026,-1354 1340,-1676z"/> <path class="fil22" d="M19247 12464c-149,300 -1084,1358 -1340,1675 176,-475 1025,-1353 1340,-1675z"/> <path class="fil20" d="M22493 11898c-135,307 -1022,1406 -1264,1734 155,-482 964,-1398 1264,-1734z"/> <path class="fil22" d="M19442 12376c-135,307 -1022,1406 -1264,1734 155,-482 964,-1398 1264,-1734z"/> <path class="fil21" d="M22753 11967c-148,300 -1083,1359 -1340,1676 176,-476 1026,-1354 1340,-1676z"/> <path class="fil22" d="M19730 12407c-149,301 -1084,1359 -1340,1675 176,-474 1026,-1353 1340,-1675z"/> <path class="fil20" d="M20517 12208c-135,306 -1022,1406 -1264,1734 155,-483 964,-1399 1264,-1734z"/> <path class="fil20" d="M20765 12187c-148,301 -1083,1359 -1340,1676 177,-475 1026,-1353 1340,-1676z"/> <path class="fil20" d="M23437 15018c-208,-262 -1342,-1103 -1660,-1359 272,427 1286,1110 1660,1359z"/> <path class="fil20" d="M20364 15324c-208,-263 -1343,-1103 -1660,-1359 272,427 1286,1110 1660,1359z"/> <path class="fil20" d="M20596 15169c-220,-253 -1391,-1042 -1719,-1284 290,416 1334,1052 1719,1284z"/> <path class="fil20" d="M21447 15216c-208,-262 -1343,-1103 -1660,-1359 272,428 1285,1110 1660,1359z"/> <path class="fil20" d="M18416 15593c-209,-263 -1343,-1103 -1661,-1359 272,427 1286,1110 1661,1359z"/> <path class="fil23" d="M21690 15151c-220,-254 -1391,-1042 -1719,-1284 290,415 1333,1051 1719,1284z"/> <path class="fil24" d="M18632 15512c-220,-254 -1391,-1042 -1719,-1284 290,415 1334,1051 1719,1284z"/> <path class="fil23" d="M21945 15167c-208,-263 -1343,-1103 -1660,-1360 272,428 1285,1110 1660,1360z"/> <path class="fil20" d="M18979 15618c-208,-263 -1343,-1103 -1660,-1360 272,428 1285,1110 1660,1360z"/> <path class="fil23" d="M22185 15079c-220,-253 -1391,-1042 -1720,-1284 291,415 1334,1052 1720,1284z"/> <path class="fil20" d="M19112 15384c-220,-253 -1392,-1041 -1720,-1283 291,415 1334,1051 1720,1283z"/> <path class="fil20" d="M22442 15117c-208,-262 -1343,-1103 -1660,-1359 272,427 1286,1110 1660,1359z"/> <path class="fil20" d="M19369 15423c-208,-263 -1343,-1103 -1660,-1359 272,427 1286,1110 1660,1359z"/> <path class="fil20" d="M22680 15007c-220,-253 -1392,-1042 -1720,-1284 291,416 1334,1052 1720,1284z"/> <path class="fil20" d="M19606 15313c-219,-253 -1391,-1042 -1719,-1284 291,415 1334,1051 1719,1284z"/> <path class="fil20" d="M22940 15068c-208,-263 -1343,-1103 -1660,-1360 271,428 1285,1110 1660,1360z"/> <path class="fil20" d="M19867 15374c-208,-264 -1343,-1104 -1660,-1360 272,428 1285,1110 1660,1360z"/> <path class="fil20" d="M23175 14935c-220,-253 -1392,-1041 -1720,-1283 291,415 1334,1051 1720,1283z"/> <path class="fil20" d="M20101 15241c-220,-253 -1391,-1042 -1719,-1284 290,415 1334,1052 1719,1284z"/> <path class="fil20" d="M20949 15266c-207,-263 -1342,-1103 -1660,-1360 272,428 1286,1110 1660,1360z"/> <path class="fil20" d="M21195 15222c-220,-253 -1391,-1041 -1719,-1283 290,415 1334,1051 1719,1283z"/> <polygon class="fil27" points="22459,13777 22142,13570 20310,13627 19109,13815 17891,13904 17077,14237 16009,14071 16035,14323 17128,14561 17877,14162 19540,13979 20557,13819 21967,13752 "/> <path class="fil20" d="M24028 10428c-317,-110 -1726,-207 -2131,-252 459,214 1681,243 2131,252z"/> <path class="fil20" d="M17547 11544c36,334 -182,1729 -227,2134 -107,-496 135,-1693 227,-2134z"/> <path class="fil20" d="M17772 11502c22,335 -259,1719 -323,2122 -84,-500 212,-1686 323,-2122z"/> <path class="fil20" d="M19365 13937c-311,-123 -1714,-283 -2117,-347 449,234 1668,319 2117,347z"/> <path class="fil20" d="M19556 13777c-316,-109 -1725,-206 -2131,-252 460,214 1681,244 2131,252z"/> <path class="fil21" d="M21939 8222c37,333 -181,1728 -227,2133 -106,-495 136,-1693 227,-2133z"/> <path class="fil22" d="M19513 10074c36,333 -182,1728 -228,2133 -107,-495 136,-1693 228,-2133z"/> <path class="fil21" d="M22184 8154c21,335 -259,1719 -323,2121 -85,-499 212,-1685 323,-2121z"/> <path class="fil22" d="M19795 9941c22,334 -259,1719 -323,2121 -85,-500 212,-1685 323,-2121z"/> <path class="fil20" d="M20360 9390c36,333 -182,1728 -228,2133 -107,-495 136,-1692 228,-2133z"/> <path class="fil20" d="M17956 11330c37,333 -182,1728 -227,2133 -107,-495 136,-1693 227,-2133z"/> <path class="fil20" d="M20579 9266c20,335 -260,1719 -324,2121 -84,-499 212,-1685 324,-2121z"/> <path class="fil20" d="M18175 11206c22,334 -259,1718 -323,2121 -85,-499 212,-1685 323,-2121z"/> <path class="fil20" d="M20749 9076c36,333 -182,1728 -228,2133 -107,-495 136,-1692 228,-2133z"/> <path class="fil22" d="M18345 11016c37,333 -182,1728 -227,2133 -107,-495 136,-1693 227,-2133z"/> <path class="fil20" d="M20981 8970c21,335 -259,1719 -323,2121 -84,-499 212,-1685 323,-2121z"/> <path class="fil22" d="M18578 10910c22,335 -259,1718 -323,2121 -85,-500 212,-1685 323,-2121z"/> <path class="fil20" d="M21138 8761c36,334 -182,1729 -228,2135 -107,-496 136,-1694 228,-2135z"/> <path class="fil22" d="M18734 10701c37,334 -181,1729 -227,2134 -107,-495 136,-1693 227,-2134z"/> <path class="fil20" d="M21384 8674c21,334 -260,1718 -323,2121 -85,-500 212,-1685 323,-2121z"/> <path class="fil22" d="M18998 10561c22,334 -259,1718 -323,2121 -85,-500 212,-1685 323,-2121z"/> <path class="fil20" d="M21527 8448c36,333 -182,1728 -228,2134 -107,-496 136,-1694 228,-2134z"/> <path class="fil22" d="M19124 10387c36,334 -182,1729 -228,2134 -107,-495 136,-1693 228,-2134z"/> <path class="fil21" d="M21787 8377c21,335 -260,1719 -323,2122 -85,-500 212,-1686 323,-2122z"/> <path class="fil22" d="M19388 10270c22,335 -259,1719 -323,2121 -84,-499 213,-1685 323,-2121z"/> <path class="fil20" d="M19971 9704c35,333 -182,1728 -228,2133 -107,-495 136,-1693 228,-2133z"/> <path class="fil20" d="M20176 9563c21,334 -260,1718 -324,2121 -84,-500 212,-1685 324,-2121z"/> <path class="fil20" d="M23905 10678c-312,-124 -1715,-284 -2118,-347 449,234 1668,318 2118,347z"/> <path class="fil20" d="M21396 12479c-311,-123 -1714,-283 -2117,-347 449,234 1668,318 2117,347z"/> <path class="fil20" d="M21519 12229c-316,-109 -1725,-206 -2130,-252 459,214 1681,244 2130,252z"/> <path class="fil20" d="M22280 11844c-312,-123 -1714,-284 -2117,-347 449,235 1668,319 2117,347z"/> <path class="fil20" d="M19843 13687c-311,-124 -1714,-284 -2117,-348 449,235 1668,319 2117,348z"/> <path class="fil23" d="M22457 11666c-316,-109 -1725,-206 -2130,-252 459,214 1680,244 2130,252z"/> <path class="fil24" d="M19990 13508c-317,-110 -1726,-207 -2131,-252 460,214 1681,243 2131,252z"/> <path class="fil23" d="M22686 11553c-311,-124 -1714,-284 -2117,-348 449,235 1668,319 2117,348z"/> <path class="fil20" d="M20344 13426c-312,-123 -1715,-283 -2118,-347 450,234 1669,319 2118,347z"/> <path class="fil23" d="M22850 11356c-317,-109 -1726,-206 -2131,-251 459,214 1681,243 2131,251z"/> <path class="fil20" d="M20341 13158c-316,-109 -1725,-206 -2130,-252 459,214 1681,244 2130,252z"/> <path class="fil20" d="M23093 11261c-312,-123 -1715,-284 -2118,-347 449,234 1668,318 2118,347z"/> <path class="fil20" d="M20584 13062c-312,-123 -1715,-283 -2118,-347 450,235 1669,319 2118,347z"/> <path class="fil20" d="M23243 11047c-317,-110 -1726,-206 -2131,-252 459,214 1681,244 2131,252z"/> <path class="fil20" d="M20734 12848c-317,-109 -1726,-206 -2131,-252 459,214 1681,244 2131,252z"/> <path class="fil20" d="M23499 10969c-312,-123 -1715,-284 -2118,-347 449,235 1668,319 2118,347z"/> <path class="fil20" d="M20990 12771c-311,-124 -1715,-284 -2117,-348 449,235 1668,319 2117,348z"/> <path class="fil20" d="M23635 10737c-317,-109 -1725,-206 -2131,-251 460,214 1681,243 2131,251z"/> <path class="fil20" d="M21127 12539c-317,-110 -1726,-206 -2131,-252 459,214 1681,244 2131,252z"/> <path class="fil20" d="M21874 12136c-311,-124 -1714,-284 -2117,-347 449,234 1668,318 2117,347z"/> <path class="fil20" d="M22065 11976c-317,-110 -1726,-206 -2131,-252 459,214 1681,244 2131,252z"/> <polygon class="fil28" points="22437,10092 22059,10072 20501,11036 19554,11801 18544,12486 18006,13181 16998,13572 17147,13777 18212,13437 18662,12717 20010,11726 20811,11079 21998,10316 "/> </g> <g> <path class="fil20" d="M19013 10909c-237,253 -1503,1042 -1858,1284 314,-415 1442,-1051 1858,-1284z"/> <path class="fil20" d="M12345 13183c-146,-307 -1104,-1406 -1366,-1734 168,482 1042,1398 1366,1734z"/> <path class="fil20" d="M12579 13107c-161,-301 -1171,-1359 -1449,-1676 191,475 1109,1353 1449,1676z"/> <path class="fil20" d="M12754 10201c-225,263 -1451,1103 -1794,1360 294,-428 1389,-1110 1794,-1360z"/> <path class="fil20" d="M13019 10244c-237,253 -1503,1042 -1858,1284 315,-415 1442,-1051 1858,-1284z"/> <path class="fil21" d="M18251 13864c-146,-307 -1104,-1406 -1366,-1734 168,482 1042,1398 1366,1734z"/> <path class="fil22" d="M14979 13474c-146,-307 -1104,-1406 -1366,-1734 168,482 1042,1398 1366,1734z"/> <path class="fil21" d="M18516 13800c-161,-300 -1171,-1359 -1449,-1675 192,475 1109,1353 1449,1675z"/> <path class="fil22" d="M15315 13448c-161,-301 -1171,-1359 -1448,-1676 190,475 1108,1353 1448,1676z"/> <path class="fil20" d="M16141 13642c-146,-306 -1104,-1406 -1366,-1734 168,483 1042,1399 1366,1734z"/> <path class="fil20" d="M12844 13164c-146,-307 -1104,-1406 -1366,-1734 168,482 1042,1398 1366,1734z"/> <path class="fil20" d="M16413 13640c-161,-301 -1171,-1359 -1449,-1675 191,474 1109,1353 1449,1675z"/> <path class="fil20" d="M13116 13162c-161,-301 -1171,-1359 -1448,-1676 190,475 1108,1354 1448,1676z"/> <path class="fil20" d="M16675 13720c-146,-307 -1104,-1406 -1366,-1734 167,482 1042,1398 1366,1734z"/> <path class="fil22" d="M13378 13241c-146,-306 -1104,-1405 -1366,-1733 168,482 1042,1397 1366,1733z"/> <path class="fil20" d="M16950 13695c-161,-300 -1172,-1358 -1449,-1675 191,474 1109,1353 1449,1675z"/> <path class="fil22" d="M13653 13217c-161,-301 -1171,-1359 -1449,-1676 191,476 1109,1354 1449,1676z"/> <path class="fil20" d="M17208 13797c-145,-307 -1104,-1406 -1365,-1734 168,483 1042,1398 1365,1734z"/> <path class="fil22" d="M13912 13319c-147,-307 -1104,-1406 -1366,-1734 168,482 1042,1398 1366,1734z"/> <path class="fil20" d="M17486 13750c-160,-300 -1170,-1358 -1448,-1675 191,475 1109,1353 1448,1675z"/> <path class="fil22" d="M14235 13309c-161,-300 -1172,-1359 -1449,-1676 191,476 1109,1354 1449,1676z"/> <path class="fil20" d="M17742 13875c-146,-307 -1104,-1406 -1365,-1734 167,482 1041,1398 1365,1734z"/> <path class="fil22" d="M14445 13396c-145,-306 -1103,-1406 -1365,-1734 167,483 1042,1399 1365,1734z"/> <path class="fil21" d="M18024 13806c-161,-301 -1171,-1359 -1449,-1676 191,475 1109,1353 1449,1676z"/> <path class="fil22" d="M14757 13365c-161,-300 -1171,-1358 -1448,-1675 190,475 1108,1353 1448,1675z"/> <path class="fil20" d="M15607 13565c-146,-307 -1104,-1406 -1366,-1734 168,483 1042,1398 1366,1734z"/> <path class="fil20" d="M15875 13585c-160,-301 -1170,-1359 -1448,-1675 191,474 1109,1353 1448,1675z"/> <path class="fil20" d="M18763 10754c-225,263 -1451,1104 -1794,1360 294,-428 1389,-1110 1794,-1360z"/> <path class="fil20" d="M15442 10449c-225,262 -1451,1102 -1793,1359 293,-428 1389,-1110 1793,-1359z"/> <path class="fil20" d="M15693 10603c-238,253 -1504,1042 -1858,1284 314,-415 1441,-1052 1858,-1284z"/> <path class="fil20" d="M16612 10556c-225,263 -1451,1104 -1794,1360 294,-428 1389,-1111 1794,-1360z"/> <path class="fil20" d="M13336 10179c-225,263 -1450,1103 -1793,1360 293,-428 1389,-1110 1793,-1360z"/> <path class="fil23" d="M16875 10622c-238,253 -1504,1041 -1858,1284 314,-416 1441,-1052 1858,-1284z"/> <path class="fil24" d="M13571 10261c-238,253 -1504,1042 -1858,1284 314,-416 1441,-1051 1858,-1284z"/> <path class="fil23" d="M17150 10606c-225,263 -1451,1103 -1794,1359 294,-427 1389,-1110 1794,-1359z"/> <path class="fil20" d="M13945 10154c-225,264 -1451,1104 -1793,1360 293,-428 1389,-1110 1793,-1360z"/> <path class="fil23" d="M17409 10694c-237,253 -1503,1042 -1858,1283 315,-415 1442,-1051 1858,-1283z"/> <path class="fil20" d="M14089 10388c-238,253 -1504,1041 -1858,1283 314,-414 1441,-1051 1858,-1283z"/> <path class="fil20" d="M17688 10655c-225,263 -1452,1104 -1794,1360 293,-428 1389,-1110 1794,-1360z"/> <path class="fil20" d="M14367 10350c-225,262 -1451,1102 -1794,1359 294,-428 1389,-1110 1794,-1359z"/> <path class="fil20" d="M17944 10765c-238,253 -1504,1042 -1858,1284 314,-415 1442,-1051 1858,-1284z"/> <path class="fil20" d="M14623 10460c-237,253 -1503,1041 -1858,1283 315,-415 1442,-1051 1858,-1283z"/> <path class="fil20" d="M18225 10705c-224,263 -1451,1103 -1794,1359 294,-427 1389,-1110 1794,-1359z"/> <path class="fil20" d="M14905 10399c-225,263 -1452,1103 -1794,1360 294,-428 1389,-1110 1794,-1360z"/> <path class="fil20" d="M18479 10837c-238,254 -1504,1042 -1858,1284 314,-415 1441,-1051 1858,-1284z"/> <path class="fil20" d="M15158 10532c-238,253 -1504,1041 -1858,1283 314,-415 1442,-1051 1858,-1283z"/> <path class="fil20" d="M16074 10507c-224,263 -1450,1103 -1793,1359 293,-427 1389,-1110 1793,-1359z"/> <path class="fil20" d="M16340 10550c-238,253 -1504,1042 -1858,1284 314,-415 1441,-1052 1858,-1284z"/> <polygon class="fil29" points="17705,11996 17363,12202 15384,12146 14085,11957 12770,11868 11890,11536 10736,11701 10764,11449 11945,11211 12755,11610 14551,11794 15651,11953 17174,12021 "/> <path class="fil20" d="M19401 15345c-342,109 -1865,206 -2303,252 497,-214 1817,-244 2303,-252z"/> <path class="fil20" d="M12398 14228c39,-333 -197,-1728 -246,-2133 -115,495 147,1693 246,2133z"/> <path class="fil20" d="M12641 14270c23,-334 -280,-1718 -349,-2121 -91,500 229,1685 349,2121z"/> <path class="fil20" d="M14363 11835c-337,124 -1853,284 -2288,347 485,-234 1803,-318 2288,-347z"/> <path class="fil20" d="M14569 11995c-342,110 -1865,207 -2302,252 496,-214 1816,-243 2302,-252z"/> <path class="fil21" d="M17144 17551c39,-333 -196,-1729 -246,-2134 -115,495 147,1693 246,2134z"/> <path class="fil22" d="M14522 15699c39,-333 -197,-1728 -246,-2134 -116,496 147,1693 246,2134z"/> <path class="fil21" d="M17408 17618c24,-334 -279,-1718 -349,-2121 -91,500 229,1685 349,2121z"/> <path class="fil22" d="M14827 15832c23,-335 -280,-1719 -349,-2122 -92,500 229,1685 349,2122z"/> <path class="fil20" d="M15437 16383c39,-334 -196,-1729 -246,-2134 -115,495 147,1693 246,2134z"/> <path class="fil20" d="M12840 14443c40,-334 -196,-1729 -245,-2134 -116,496 146,1693 245,2134z"/> <path class="fil20" d="M15674 16506c22,-334 -281,-1718 -350,-2121 -91,500 229,1685 350,2121z"/> <path class="fil20" d="M13077 14566c23,-334 -280,-1718 -349,-2121 -92,500 228,1685 349,2121z"/> <path class="fil20" d="M15858 16697c39,-333 -197,-1729 -247,-2134 -115,495 148,1693 247,2134z"/> <path class="fil22" d="M13261 14757c39,-333 -197,-1729 -246,-2134 -116,496 147,1693 246,2134z"/> <path class="fil20" d="M16108 16802c24,-334 -279,-1718 -349,-2120 -91,499 229,1685 349,2120z"/> <path class="fil22" d="M13512 14863c23,-335 -280,-1719 -349,-2121 -91,499 229,1685 349,2121z"/> <path class="fil20" d="M16278 17011c39,-333 -197,-1728 -246,-2134 -115,495 147,1693 246,2134z"/> <path class="fil22" d="M13681 15071c39,-333 -197,-1728 -246,-2133 -115,495 147,1692 246,2133z"/> <path class="fil20" d="M16544 17099c23,-335 -281,-1719 -349,-2122 -92,500 229,1686 349,2122z"/> <path class="fil22" d="M13966 15212c23,-335 -280,-1718 -349,-2121 -92,499 229,1685 349,2121z"/> <path class="fil20" d="M16698 17325c40,-333 -196,-1728 -246,-2134 -115,496 147,1693 246,2134z"/> <path class="fil22" d="M14101 15385c40,-333 -196,-1728 -245,-2133 -116,495 147,1692 245,2133z"/> <path class="fil21" d="M16979 17395c23,-334 -280,-1719 -349,-2121 -91,500 229,1685 349,2121z"/> <path class="fil22" d="M14388 15502c23,-334 -280,-1718 -350,-2121 -90,500 230,1685 350,2121z"/> <path class="fil20" d="M15017 16069c39,-334 -197,-1729 -247,-2134 -115,496 147,1693 247,2134z"/> <path class="fil20" d="M15238 16210c23,-335 -280,-1718 -349,-2121 -91,499 229,1685 349,2121z"/> <path class="fil20" d="M19268 15095c-337,123 -1853,284 -2288,347 485,-234 1802,-318 2288,-347z"/> <path class="fil20" d="M16557 13293c-336,124 -1852,284 -2288,348 486,-235 1803,-319 2288,-348z"/> <path class="fil20" d="M16690 13543c-342,110 -1864,207 -2302,252 496,-214 1816,-243 2302,-252z"/> <path class="fil20" d="M17512 13928c-337,124 -1852,284 -2288,347 486,-234 1803,-318 2288,-347z"/> <path class="fil20" d="M14879 12086c-336,123 -1853,284 -2288,347 486,-235 1803,-319 2288,-347z"/> <path class="fil23" d="M17704 14106c-342,110 -1864,207 -2303,252 497,-214 1817,-243 2303,-252z"/> <path class="fil24" d="M15038 12265c-343,110 -1865,206 -2303,252 497,-214 1816,-244 2303,-252z"/> <path class="fil23" d="M17951 14220c-337,123 -1852,284 -2288,347 485,-234 1803,-318 2288,-347z"/> <path class="fil20" d="M15420 12346c-337,124 -1853,284 -2288,347 485,-234 1803,-318 2288,-347z"/> <path class="fil23" d="M18128 14416c-342,109 -1865,207 -2302,252 496,-214 1816,-243 2302,-252z"/> <path class="fil20" d="M15417 12614c-342,110 -1864,207 -2302,252 497,-214 1817,-243 2302,-252z"/> <path class="fil20" d="M18390 14511c-337,124 -1852,285 -2288,348 485,-235 1803,-319 2288,-348z"/> <path class="fil20" d="M15679 12710c-336,124 -1852,284 -2288,347 486,-234 1803,-318 2288,-347z"/> <path class="fil20" d="M18553 14725c-343,110 -1865,207 -2303,252 496,-214 1816,-243 2303,-252z"/> <path class="fil20" d="M15842 12924c-342,109 -1865,207 -2303,252 496,-214 1817,-243 2303,-252z"/> <path class="fil20" d="M18829 14803c-337,124 -1853,284 -2288,347 485,-234 1802,-318 2288,-347z"/> <path class="fil20" d="M16118 13002c-336,123 -1852,283 -2288,347 486,-234 1803,-318 2288,-347z"/> <path class="fil20" d="M18977 15035c-343,109 -1865,207 -2303,252 497,-214 1816,-243 2303,-252z"/> <path class="fil20" d="M16266 13233c-342,110 -1864,207 -2302,253 496,-215 1816,-244 2302,-253z"/> <path class="fil20" d="M17074 13636c-337,124 -1853,285 -2289,348 486,-235 1803,-319 2289,-348z"/> <path class="fil20" d="M17280 13796c-343,110 -1865,207 -2303,252 497,-214 1817,-243 2303,-252z"/> <polygon class="fil30" points="17681,15680 17273,15701 15590,14736 14567,13972 13476,13286 12893,12591 11805,12201 11965,11996 13117,12335 13602,13056 15059,14046 15925,14693 17208,15456 "/> </g> <g> <path class="fil20" d="M13224 15726c-167,-301 -1225,-1366 -1515,-1684 197,475 1159,1360 1515,1684z"/> <path class="fil20" d="M7099 11933c-240,261 -1540,1094 -1904,1348 314,-426 1475,-1101 1904,-1348z"/> <path class="fil20" d="M7315 12063c-253,252 -1595,1032 -1971,1271 334,-413 1529,-1042 1971,-1271z"/> <path class="fil20" d="M6636 14911c-152,-307 -1154,-1413 -1427,-1743 173,484 1088,1405 1427,1743z"/> <path class="fil20" d="M6918 14933c-167,-301 -1224,-1366 -1514,-1685 198,476 1159,1360 1514,1685z"/> <path class="fil21" d="M13319 12690c-240,261 -1540,1093 -1904,1347 313,-425 1475,-1101 1904,-1347z"/> <path class="fil22" d="M9869 12283c-239,261 -1540,1093 -1903,1348 313,-426 1474,-1102 1903,-1348z"/> <path class="fil21" d="M13570 12815c-253,251 -1595,1032 -1971,1271 335,-413 1530,-1041 1971,-1271z"/> <path class="fil22" d="M10204 12389c-253,252 -1595,1032 -1971,1271 335,-413 1529,-1042 1971,-1271z"/> <path class="fil20" d="M11103 12398c-239,262 -1540,1094 -1904,1348 313,-426 1475,-1101 1904,-1348z"/> <path class="fil20" d="M7602 12071c-240,261 -1540,1093 -1904,1347 314,-425 1475,-1101 1904,-1347z"/> <path class="fil20" d="M11379 12466c-252,252 -1594,1031 -1970,1271 334,-413 1529,-1042 1970,-1271z"/> <path class="fil20" d="M7878 12138c-252,252 -1595,1032 -1970,1272 334,-413 1529,-1042 1970,-1272z"/> <path class="fil20" d="M11670 12451c-239,262 -1540,1094 -1904,1348 313,-426 1474,-1101 1904,-1348z"/> <path class="fil22" d="M8169 12124c-240,261 -1540,1093 -1904,1347 313,-425 1475,-1100 1904,-1347z"/> <path class="fil20" d="M11943 12541c-253,252 -1595,1032 -1971,1271 335,-412 1529,-1041 1971,-1271z"/> <path class="fil22" d="M8441 12213c-252,252 -1594,1032 -1970,1272 335,-414 1529,-1042 1970,-1272z"/> <path class="fil20" d="M12237 12504c-240,262 -1540,1094 -1904,1348 314,-426 1474,-1101 1904,-1348z"/> <path class="fil22" d="M8736 12177c-240,261 -1540,1094 -1904,1348 313,-426 1474,-1101 1904,-1348z"/> <path class="fil20" d="M12506 12616c-252,252 -1594,1032 -1971,1272 335,-414 1530,-1042 1971,-1272z"/> <path class="fil22" d="M9062 12264c-253,251 -1595,1032 -1971,1271 335,-413 1529,-1041 1971,-1271z"/> <path class="fil20" d="M12803 12558c-239,261 -1540,1093 -1903,1347 313,-425 1474,-1101 1903,-1347z"/> <path class="fil22" d="M9302 12230c-239,261 -1540,1094 -1903,1348 313,-426 1474,-1101 1903,-1348z"/> <path class="fil21" d="M13070 12692c-253,251 -1594,1032 -1971,1271 335,-413 1529,-1042 1971,-1271z"/> <path class="fil22" d="M9611 12335c-253,251 -1595,1031 -1971,1271 335,-413 1529,-1042 1971,-1271z"/> <path class="fil20" d="M10536 12345c-239,262 -1540,1094 -1904,1348 314,-426 1475,-1101 1904,-1348z"/> <path class="fil20" d="M10815 12390c-252,252 -1594,1032 -1970,1272 335,-413 1529,-1042 1970,-1272z"/> <path class="fil20" d="M12923 15816c-152,-308 -1153,-1413 -1427,-1743 173,483 1088,1405 1427,1743z"/> <path class="fil20" d="M9449 15316c-152,-308 -1154,-1413 -1427,-1743 172,484 1088,1405 1427,1743z"/> <path class="fil20" d="M9749 15227c-167,-302 -1224,-1367 -1514,-1686 197,477 1159,1361 1514,1686z"/> <path class="fil20" d="M10672 15492c-151,-307 -1153,-1413 -1426,-1743 173,484 1088,1405 1426,1743z"/> <path class="fil20" d="M7223 15072c-152,-308 -1153,-1413 -1427,-1743 173,483 1088,1405 1427,1743z"/> <path class="fil23" d="M10959 15492c-167,-302 -1224,-1366 -1514,-1686 197,477 1158,1361 1514,1686z"/> <path class="fil24" d="M7486 15049c-168,-302 -1225,-1366 -1515,-1685 197,476 1159,1360 1515,1685z"/> <path class="fil23" d="M11235 15573c-151,-308 -1154,-1413 -1427,-1743 173,484 1088,1405 1427,1743z"/> <path class="fil20" d="M7836 15242c-152,-309 -1154,-1414 -1427,-1743 173,483 1088,1404 1427,1743z"/> <path class="fil23" d="M11525 15550c-167,-301 -1224,-1366 -1515,-1685 199,477 1159,1361 1515,1685z"/> <path class="fil20" d="M8051 15050c-167,-301 -1225,-1366 -1515,-1684 198,475 1159,1360 1515,1684z"/> <path class="fil20" d="M11798 15654c-152,-307 -1154,-1413 -1427,-1743 173,483 1088,1405 1427,1743z"/> <path class="fil20" d="M8323 15154c-152,-308 -1153,-1413 -1427,-1743 173,484 1088,1405 1427,1743z"/> <path class="fil20" d="M12091 15609c-167,-301 -1224,-1366 -1514,-1685 197,476 1159,1361 1514,1685z"/> <path class="fil20" d="M8617 15109c-167,-301 -1225,-1366 -1515,-1685 198,476 1159,1361 1515,1685z"/> <path class="fil20" d="M12360 15735c-151,-308 -1153,-1413 -1427,-1743 173,484 1088,1405 1427,1743z"/> <path class="fil20" d="M8886 15235c-152,-308 -1154,-1413 -1427,-1743 173,483 1088,1405 1427,1743z"/> <path class="fil20" d="M12658 15668c-168,-302 -1225,-1367 -1515,-1685 197,476 1158,1360 1515,1685z"/> <path class="fil20" d="M9183 15168c-167,-302 -1225,-1367 -1515,-1685 198,476 1159,1361 1515,1685z"/> <path class="fil20" d="M10110 15411c-151,-308 -1153,-1413 -1427,-1743 173,484 1088,1405 1427,1743z"/> <path class="fil20" d="M10393 15433c-167,-302 -1225,-1366 -1515,-1685 198,476 1159,1361 1515,1685z"/> <polygon class="fil31" points="12211,14364 11923,14082 9890,13663 8511,13534 7144,13304 6149,13415 5022,12979 4976,13229 6109,13742 7052,13550 8937,13803 10105,13912 11677,14212 "/> <path class="fil20" d="M14928 11535c-317,-188 -1840,-646 -2273,-795 443,326 1780,670 2273,795z"/> <path class="fil20" d="M7461 10936c-58,331 -710,1622 -880,2002 28,-507 649,-1600 880,-2002z"/> <path class="fil20" d="M7722 10954c-76,328 -793,1593 -982,1965 55,-504 730,-1573 982,-1965z"/> <path class="fil20" d="M8757 13718c-306,-200 -1804,-718 -2228,-883 425,342 1743,739 2228,883z"/> <path class="fil20" d="M9015 13613c-316,-188 -1840,-646 -2272,-795 442,326 1779,670 2272,795z"/> <path class="fil21" d="M13279 8863c-59,332 -710,1623 -880,2002 28,-506 649,-1600 880,-2002z"/> <path class="fil22" d="M10060 10024c-59,331 -711,1622 -880,2002 28,-506 649,-1600 880,-2002z"/> <path class="fil21" d="M13568 8861c-75,329 -793,1594 -982,1966 54,-505 731,-1573 982,-1966z"/> <path class="fil22" d="M10410 9969c-75,329 -793,1593 -982,1965 54,-504 731,-1573 982,-1965z"/> <path class="fil20" d="M11194 9583c-58,331 -710,1622 -880,2002 28,-506 649,-1600 880,-2002z"/> <path class="fil20" d="M7975 10834c-58,332 -710,1623 -880,2003 29,-507 650,-1601 880,-2003z"/> <path class="fil20" d="M11472 9520c-76,328 -793,1593 -982,1965 54,-504 731,-1573 982,-1965z"/> <path class="fil20" d="M8253 10772c-75,328 -793,1592 -982,1965 54,-505 730,-1573 982,-1965z"/> <path class="fil20" d="M11715 9380c-58,331 -710,1622 -880,2002 29,-506 650,-1600 880,-2002z"/> <path class="fil22" d="M8496 10632c-58,331 -710,1622 -880,2002 29,-507 649,-1600 880,-2002z"/> <path class="fil20" d="M12002 9338c-75,329 -792,1593 -981,1965 54,-504 730,-1573 981,-1965z"/> <path class="fil22" d="M8784 10590c-75,329 -793,1593 -982,1965 54,-505 731,-1573 982,-1965z"/> <path class="fil20" d="M12237 9177c-59,332 -711,1623 -881,2003 29,-507 650,-1601 881,-2003z"/> <path class="fil22" d="M9017 10429c-58,331 -710,1623 -880,2002 29,-506 650,-1600 880,-2002z"/> <path class="fil20" d="M12534 9156c-76,329 -793,1593 -982,1966 54,-505 730,-1573 982,-1966z"/> <path class="fil22" d="M9350 10361c-76,329 -793,1593 -982,1966 54,-505 730,-1573 982,-1966z"/> <path class="fil20" d="M12757 8975c-58,331 -710,1622 -880,2002 29,-506 650,-1600 880,-2002z"/> <path class="fil22" d="M9539 10226c-59,332 -711,1623 -880,2002 28,-506 649,-1599 880,-2002z"/> <path class="fil21" d="M13065 8974c-76,329 -793,1593 -982,1965 54,-504 730,-1572 982,-1965z"/> <path class="fil22" d="M9865 10182c-75,328 -793,1593 -982,1965 55,-505 731,-1573 982,-1965z"/> <path class="fil20" d="M10673 9785c-59,332 -710,1623 -880,2002 28,-506 649,-1600 880,-2002z"/> <path class="fil20" d="M10941 9702c-76,329 -793,1593 -982,1965 54,-504 730,-1573 982,-1965z"/> <path class="fil20" d="M14718 11744c-307,-200 -1804,-718 -2229,-883 425,343 1743,739 2229,883z"/> <path class="fil20" d="M11424 12835c-306,-200 -1804,-718 -2229,-883 426,342 1743,739 2229,883z"/> <path class="fil20" d="M11633 12626c-316,-188 -1839,-647 -2271,-795 442,325 1779,670 2271,795z"/> <path class="fil20" d="M12585 12451c-307,-200 -1804,-718 -2229,-884 425,343 1743,740 2229,884z"/> <path class="fil20" d="M9358 13600c-307,-200 -1805,-718 -2230,-884 426,343 1744,740 2230,884z"/> <path class="fil23" d="M12833 12325c-317,-188 -1839,-646 -2273,-795 443,325 1780,670 2273,795z"/> <path class="fil24" d="M9572 13465c-317,-188 -1840,-647 -2272,-795 443,325 1779,670 2272,795z"/> <path class="fil23" d="M13118 12274c-307,-200 -1804,-718 -2229,-883 425,342 1743,739 2229,883z"/> <path class="fil20" d="M9986 13478c-307,-200 -1805,-718 -2230,-884 426,343 1743,740 2230,884z"/> <path class="fil23" d="M13357 12127c-317,-187 -1840,-646 -2273,-795 443,326 1780,670 2273,795z"/> <path class="fil20" d="M10062 13218c-316,-188 -1839,-646 -2272,-795 443,326 1780,670 2272,795z"/> <path class="fil20" d="M13652 12098c-307,-200 -1805,-719 -2230,-884 426,343 1743,739 2230,884z"/> <path class="fil20" d="M10357 13188c-306,-200 -1804,-717 -2229,-883 426,342 1744,739 2229,883z"/> <path class="fil20" d="M13880 11930c-317,-188 -1839,-646 -2272,-795 443,325 1779,670 2272,795z"/> <path class="fil20" d="M10586 13020c-316,-187 -1839,-646 -2272,-795 442,326 1779,671 2272,795z"/> <path class="fil20" d="M14185 11921c-307,-200 -1804,-718 -2229,-883 425,342 1743,739 2229,883z"/> <path class="fil20" d="M10891 13012c-307,-200 -1805,-718 -2230,-884 426,343 1744,740 2230,884z"/> <path class="fil20" d="M14404 11732c-317,-187 -1839,-646 -2273,-794 443,325 1780,669 2273,794z"/> <path class="fil20" d="M11110 12823c-316,-188 -1840,-646 -2272,-795 442,326 1779,671 2272,795z"/> <path class="fil20" d="M12052 12627c-307,-200 -1805,-718 -2230,-883 426,343 1744,739 2230,883z"/> <path class="fil20" d="M12309 12522c-317,-188 -1839,-646 -2272,-795 442,326 1779,671 2272,795z"/> <polygon class="fil32" points="13274,10799 12864,10681 10864,11210 9596,11703 8282,12104 7483,12636 6258,12752 6361,12989 7635,12936 8343,12357 10119,11749 11193,11331 12725,10902 "/> </g> <g> <path class="fil20" d="M29513 15726c-167,-301 -1224,-1366 -1514,-1684 197,475 1159,1360 1514,1684z"/> <path class="fil20" d="M23389 11933c-240,261 -1540,1094 -1904,1348 314,-426 1475,-1101 1904,-1348z"/> <path class="fil20" d="M23604 12063c-252,252 -1594,1032 -1970,1271 334,-413 1529,-1042 1970,-1271z"/> <path class="fil20" d="M22926 14911c-152,-307 -1154,-1413 -1427,-1743 173,484 1088,1405 1427,1743z"/> <path class="fil20" d="M23208 14933c-167,-301 -1224,-1366 -1514,-1685 198,476 1159,1360 1514,1685z"/> <path class="fil21" d="M29609 12690c-240,261 -1540,1093 -1904,1347 313,-425 1474,-1101 1904,-1347z"/> <path class="fil22" d="M26159 12283c-239,261 -1540,1093 -1904,1348 314,-426 1475,-1102 1904,-1348z"/> <path class="fil21" d="M29860 12815c-253,251 -1595,1032 -1971,1271 335,-413 1530,-1041 1971,-1271z"/> <path class="fil22" d="M26494 12389c-253,252 -1595,1032 -1971,1271 335,-413 1529,-1042 1971,-1271z"/> <path class="fil20" d="M27393 12398c-239,262 -1540,1094 -1904,1348 313,-426 1475,-1101 1904,-1348z"/> <path class="fil20" d="M23892 12071c-240,261 -1540,1093 -1904,1347 313,-425 1475,-1101 1904,-1347z"/> <path class="fil20" d="M27669 12466c-253,252 -1594,1031 -1971,1271 335,-413 1529,-1042 1971,-1271z"/> <path class="fil20" d="M24168 12138c-252,252 -1595,1032 -1970,1272 334,-413 1529,-1042 1970,-1272z"/> <path class="fil20" d="M27960 12451c-240,262 -1540,1094 -1904,1348 313,-426 1474,-1101 1904,-1348z"/> <path class="fil22" d="M24459 12124c-240,261 -1540,1093 -1904,1347 313,-425 1475,-1100 1904,-1347z"/> <path class="fil20" d="M28233 12541c-253,252 -1595,1032 -1971,1271 335,-412 1529,-1041 1971,-1271z"/> <path class="fil22" d="M24731 12213c-252,252 -1594,1032 -1970,1272 334,-414 1529,-1042 1970,-1272z"/> <path class="fil20" d="M28526 12504c-239,262 -1540,1094 -1903,1348 314,-426 1474,-1101 1903,-1348z"/> <path class="fil22" d="M25026 12177c-240,261 -1540,1094 -1904,1348 313,-426 1474,-1101 1904,-1348z"/> <path class="fil20" d="M28796 12616c-252,252 -1594,1032 -1971,1272 335,-414 1530,-1042 1971,-1272z"/> <path class="fil22" d="M25352 12264c-253,251 -1595,1032 -1971,1271 335,-413 1529,-1041 1971,-1271z"/> <path class="fil20" d="M29093 12558c-239,261 -1540,1093 -1903,1347 313,-425 1474,-1101 1903,-1347z"/> <path class="fil22" d="M25592 12230c-239,261 -1540,1094 -1903,1348 313,-426 1474,-1101 1903,-1348z"/> <path class="fil21" d="M29360 12692c-253,251 -1595,1032 -1971,1271 335,-413 1529,-1042 1971,-1271z"/> <path class="fil22" d="M25901 12335c-253,251 -1595,1031 -1971,1271 335,-413 1529,-1042 1971,-1271z"/> <path class="fil20" d="M26826 12345c-239,262 -1540,1094 -1904,1348 314,-426 1475,-1101 1904,-1348z"/> <path class="fil20" d="M27105 12390c-252,252 -1594,1032 -1970,1272 335,-413 1529,-1042 1970,-1272z"/> <path class="fil20" d="M29212 15816c-151,-308 -1153,-1413 -1426,-1743 173,483 1088,1405 1426,1743z"/> <path class="fil20" d="M25738 15316c-151,-308 -1153,-1413 -1427,-1743 173,484 1088,1405 1427,1743z"/> <path class="fil20" d="M26039 15227c-167,-302 -1225,-1367 -1514,-1686 197,477 1158,1361 1514,1686z"/> <path class="fil20" d="M26962 15492c-151,-307 -1153,-1413 -1426,-1743 173,484 1087,1405 1426,1743z"/> <path class="fil20" d="M23513 15072c-152,-308 -1153,-1413 -1427,-1743 173,483 1088,1405 1427,1743z"/> <path class="fil23" d="M27249 15492c-167,-302 -1225,-1366 -1514,-1686 197,477 1158,1361 1514,1686z"/> <path class="fil24" d="M23775 15049c-167,-302 -1224,-1366 -1514,-1685 197,476 1159,1360 1514,1685z"/> <path class="fil23" d="M27525 15573c-152,-308 -1154,-1413 -1427,-1743 173,484 1088,1405 1427,1743z"/> <path class="fil20" d="M24126 15242c-152,-309 -1154,-1414 -1427,-1743 173,483 1088,1404 1427,1743z"/> <path class="fil23" d="M27815 15550c-167,-301 -1224,-1366 -1515,-1685 198,477 1159,1361 1515,1685z"/> <path class="fil20" d="M24341 15050c-168,-301 -1225,-1366 -1515,-1684 198,475 1159,1360 1515,1684z"/> <path class="fil20" d="M28088 15654c-152,-307 -1154,-1413 -1427,-1743 172,483 1088,1405 1427,1743z"/> <path class="fil20" d="M24613 15154c-152,-308 -1153,-1413 -1427,-1743 173,484 1088,1405 1427,1743z"/> <path class="fil20" d="M28381 15609c-167,-301 -1224,-1366 -1514,-1685 197,476 1159,1361 1514,1685z"/> <path class="fil20" d="M24907 15109c-167,-301 -1225,-1366 -1515,-1685 198,476 1159,1361 1515,1685z"/> <path class="fil20" d="M28650 15735c-151,-308 -1153,-1413 -1427,-1743 173,484 1088,1405 1427,1743z"/> <path class="fil20" d="M25176 15235c-152,-308 -1154,-1413 -1427,-1743 173,483 1088,1405 1427,1743z"/> <path class="fil20" d="M28948 15668c-168,-302 -1225,-1367 -1515,-1685 197,476 1158,1360 1515,1685z"/> <path class="fil20" d="M25473 15168c-168,-302 -1225,-1367 -1515,-1685 198,476 1159,1361 1515,1685z"/> <path class="fil20" d="M26400 15411c-151,-308 -1153,-1413 -1427,-1743 173,484 1088,1405 1427,1743z"/> <path class="fil20" d="M26683 15433c-167,-302 -1225,-1366 -1515,-1685 198,476 1159,1361 1515,1685z"/> <polygon class="fil33" points="28501,14364 28213,14082 26180,13663 24800,13534 23434,13304 22439,13415 21312,12979 21266,13229 22399,13742 23342,13550 25227,13803 26395,13912 27967,14212 "/> <path class="fil20" d="M31218 11535c-317,-188 -1840,-646 -2273,-795 443,326 1779,670 2273,795z"/> <path class="fil20" d="M23751 10936c-58,331 -710,1622 -880,2002 28,-507 649,-1600 880,-2002z"/> <path class="fil20" d="M24011 10954c-75,328 -792,1593 -981,1965 54,-504 730,-1573 981,-1965z"/> <path class="fil20" d="M25047 13718c-306,-200 -1804,-718 -2229,-883 426,342 1743,739 2229,883z"/> <path class="fil20" d="M25305 13613c-317,-188 -1840,-646 -2272,-795 442,326 1779,670 2272,795z"/> <path class="fil21" d="M29569 8863c-59,332 -710,1623 -881,2002 29,-506 650,-1600 881,-2002z"/> <path class="fil22" d="M26349 10024c-58,331 -710,1622 -880,2002 29,-506 650,-1600 880,-2002z"/> <path class="fil21" d="M29858 8861c-75,329 -793,1594 -982,1966 54,-505 730,-1573 982,-1966z"/> <path class="fil22" d="M26700 9969c-75,329 -793,1593 -982,1965 54,-504 731,-1573 982,-1965z"/> <path class="fil20" d="M27484 9583c-58,331 -710,1622 -880,2002 28,-506 649,-1600 880,-2002z"/> <path class="fil20" d="M24265 10834c-58,332 -710,1623 -880,2003 28,-507 649,-1601 880,-2003z"/> <path class="fil20" d="M27762 9520c-76,328 -793,1593 -982,1965 54,-504 730,-1573 982,-1965z"/> <path class="fil20" d="M24543 10772c-75,328 -793,1592 -982,1965 54,-505 730,-1573 982,-1965z"/> <path class="fil20" d="M28005 9380c-58,331 -710,1622 -880,2002 28,-506 649,-1600 880,-2002z"/> <path class="fil22" d="M24786 10632c-58,331 -710,1622 -880,2002 29,-507 649,-1600 880,-2002z"/> <path class="fil20" d="M28292 9338c-75,329 -792,1593 -982,1965 55,-504 731,-1573 982,-1965z"/> <path class="fil22" d="M25074 10590c-75,329 -793,1593 -982,1965 54,-505 731,-1573 982,-1965z"/> <path class="fil20" d="M28526 9177c-58,332 -710,1623 -880,2003 29,-507 650,-1601 880,-2003z"/> <path class="fil22" d="M25307 10429c-58,331 -710,1623 -880,2002 29,-506 649,-1600 880,-2002z"/> <path class="fil20" d="M28823 9156c-75,329 -792,1593 -982,1966 55,-505 731,-1573 982,-1966z"/> <path class="fil22" d="M25639 10361c-75,329 -792,1593 -981,1966 54,-505 730,-1573 981,-1966z"/> <path class="fil20" d="M29047 8975c-58,331 -710,1622 -880,2002 29,-506 650,-1600 880,-2002z"/> <path class="fil22" d="M25829 10226c-59,332 -711,1623 -881,2002 29,-506 650,-1599 881,-2002z"/> <path class="fil21" d="M29355 8974c-76,329 -793,1593 -982,1965 54,-504 730,-1572 982,-1965z"/> <path class="fil22" d="M26155 10182c-75,328 -793,1593 -982,1965 55,-505 731,-1573 982,-1965z"/> <path class="fil20" d="M26963 9785c-59,332 -710,1623 -881,2002 29,-506 650,-1600 881,-2002z"/> <path class="fil20" d="M27230 9702c-75,329 -792,1593 -981,1965 54,-504 730,-1573 981,-1965z"/> <path class="fil20" d="M31008 11744c-307,-200 -1805,-718 -2229,-883 425,343 1743,739 2229,883z"/> <path class="fil20" d="M27714 12835c-306,-200 -1804,-718 -2229,-883 425,342 1743,739 2229,883z"/> <path class="fil20" d="M27923 12626c-316,-188 -1839,-647 -2271,-795 442,325 1779,670 2271,795z"/> <path class="fil20" d="M28875 12451c-307,-200 -1804,-718 -2230,-884 426,343 1744,740 2230,884z"/> <path class="fil20" d="M25647 13600c-306,-200 -1804,-718 -2229,-884 426,343 1744,740 2229,884z"/> <path class="fil23" d="M29123 12325c-317,-188 -1839,-646 -2273,-795 443,325 1779,670 2273,795z"/> <path class="fil24" d="M25862 13465c-317,-188 -1840,-647 -2272,-795 443,325 1779,670 2272,795z"/> <path class="fil23" d="M29408 12274c-307,-200 -1804,-718 -2229,-883 425,342 1743,739 2229,883z"/> <path class="fil20" d="M26275 13478c-306,-200 -1804,-718 -2229,-884 426,343 1743,740 2229,884z"/> <path class="fil23" d="M29647 12127c-317,-187 -1840,-646 -2273,-795 443,326 1779,670 2273,795z"/> <path class="fil20" d="M26352 13218c-316,-188 -1839,-646 -2272,-795 443,326 1780,670 2272,795z"/> <path class="fil20" d="M29942 12098c-307,-200 -1805,-719 -2230,-884 425,343 1743,739 2230,884z"/> <path class="fil20" d="M26647 13188c-306,-200 -1804,-717 -2229,-883 426,342 1743,739 2229,883z"/> <path class="fil20" d="M30170 11930c-317,-188 -1839,-646 -2272,-795 443,325 1779,670 2272,795z"/> <path class="fil20" d="M26876 13020c-317,-187 -1839,-646 -2272,-795 442,326 1779,671 2272,795z"/> <path class="fil20" d="M30475 11921c-307,-200 -1804,-718 -2229,-883 425,342 1742,739 2229,883z"/> <path class="fil20" d="M27181 13012c-307,-200 -1805,-718 -2230,-884 426,343 1744,740 2230,884z"/> <path class="fil20" d="M30694 11732c-317,-187 -1839,-646 -2273,-794 443,325 1780,669 2273,794z"/> <path class="fil20" d="M27400 12823c-317,-188 -1840,-646 -2272,-795 442,326 1779,671 2272,795z"/> <path class="fil20" d="M28342 12627c-307,-200 -1805,-718 -2230,-883 426,343 1744,739 2230,883z"/> <path class="fil20" d="M28599 12522c-317,-188 -1839,-646 -2272,-795 442,326 1779,671 2272,795z"/> <polygon class="fil34" points="29564,10799 29154,10681 27154,11210 25886,11703 24572,12104 23773,12636 22548,12752 22651,12989 23925,12936 24633,12357 26409,11749 27482,11331 29015,10902 "/> </g> </g> </g> </g> </svg>